<svg width="28" height="28" viewBox="0 0 28 28" fill="none" xmlns="http://www.w3.org/2000/svg">
<path d="M10 3C10 1.34375 11.3438 0 13 0H15C16.6562 0 18 1.34375 18 3V25C18 26.6562 16.6562 28 15 28H13C11.3438 28 10 26.6562 10 25V3ZM0 15C0 13.3438 1.34375 12 3 12H5C6.65625 12 8 13.3438 8 15V25C8 26.6562 6.65625 28 5 28H3C1.34375 28 0 26.6562 0 25V15ZM23 4H25C26.6562 4 28 5.34375 28 7V25C28 26.6562 26.6562 28 25 28H23C21.3438 28 20 26.6562 20 25V7C20 5.34375 21.3438 4 23 4Z" fill="#5BC663"/>
</svg>
