<svg width="21" height="28" viewBox="0 0 21 28" fill="none" xmlns="http://www.w3.org/2000/svg">
<path d="M0 13.9973L1.55859 1.53095C1.66797 0.656122 2.41172 0 3.29766 0H12.518C13.3383 0 14 0.66159 14 1.48174C14 1.65671 13.9672 1.83714 13.907 2.00117L11.375 8.74829H18.993C20.0977 8.74829 21 9.64499 21 10.7549C21 11.1595 20.8797 11.5532 20.65 11.8867L10.1391 27.2509C9.81641 27.7211 9.28594 28 8.72266 28H8.56406C7.70547 28 7.00547 27.3001 7.00547 26.4417C7.00547 26.316 7.02187 26.1902 7.05469 26.0644L9.625 15.7469H1.75C0.782031 15.7469 0 14.965 0 13.9973Z" fill="#5BC663"/>
</svg>
