<svg width="34" height="24" viewBox="0 0 34 24" fill="none" xmlns="http://www.w3.org/2000/svg">
<path d="M9.775 2.95312C9.775 4.58262 8.44156 5.90625 6.8 5.90625C5.15844 5.90625 3.825 4.58262 3.825 2.95312C3.825 1.32363 5.15844 0 6.8 0C8.44156 0 9.775 1.32363 9.775 2.95312ZM3.4 11.2693C2.86875 11.86 2.55 12.6457 2.55 13.5C2.55 14.3543 2.86875 15.14 3.4 15.7307V11.2693ZM11.0712 8.66953C9.49344 10.0564 8.5 12.0867 8.5 14.3438C8.5 16.1525 9.1375 17.8137 10.2 19.1162V20.25C10.2 21.1834 9.44031 21.9375 8.5 21.9375H5.1C4.15969 21.9375 3.4 21.1834 3.4 20.25V18.8367C1.39188 17.8875 0 15.8572 0 13.5C0 10.2357 2.66156 7.59375 5.95 7.59375H7.65C8.925 7.59375 10.1044 7.98926 11.0712 8.66426V8.66953ZM23.8 20.25V19.1162C24.8625 17.8137 25.5 16.1525 25.5 14.3438C25.5 12.0867 24.5066 10.0564 22.9288 8.66426C23.8956 7.98926 25.075 7.59375 26.35 7.59375H28.05C31.3384 7.59375 34 10.2357 34 13.5C34 15.8572 32.6081 17.8875 30.6 18.8367V20.25C30.6 21.1834 29.8403 21.9375 28.9 21.9375H25.5C24.5597 21.9375 23.8 21.1834 23.8 20.25ZM30.175 2.95312C30.175 4.58262 28.8416 5.90625 27.2 5.90625C25.5584 5.90625 24.225 4.58262 24.225 2.95312C24.225 1.32363 25.5584 0 27.2 0C28.8416 0 30.175 1.32363 30.175 2.95312ZM30.6 11.2693V15.7359C31.1313 15.14 31.45 14.3596 31.45 13.5053C31.45 12.651 31.1313 11.8652 30.6 11.2746V11.2693ZM17 6.75C15.1247 6.75 13.6 5.23652 13.6 3.375C13.6 1.51348 15.1247 0 17 0C18.8753 0 20.4 1.51348 20.4 3.375C20.4 5.23652 18.8753 6.75 17 6.75ZM12.75 14.3438C12.75 15.198 13.0688 15.9785 13.6 16.5744V12.1131C13.0688 12.709 12.75 13.4895 12.75 14.3438ZM20.4 12.1131V16.5797C20.9313 15.9838 21.25 15.2033 21.25 14.349C21.25 13.4947 20.9313 12.709 20.4 12.1184V12.1131ZM23.8 14.3438C23.8 16.701 22.4081 18.7313 20.4 19.6805V21.9375C20.4 22.8709 19.6403 23.625 18.7 23.625H15.3C14.3597 23.625 13.6 22.8709 13.6 21.9375V19.6805C11.5919 18.7313 10.2 16.701 10.2 14.3438C10.2 11.0795 12.8616 8.4375 16.15 8.4375H17.85C21.1384 8.4375 23.8 11.0795 23.8 14.3438Z" fill="#5BC663"/>
</svg>
