<svg width="28" height="28" viewBox="0 0 28 28" fill="none" xmlns="http://www.w3.org/2000/svg">
<path d="M4 0C1.79375 0 0 1.79375 0 4V24C0 26.2062 1.79375 28 4 28H24C26.2062 28 28 26.2062 28 24V4C28 1.79375 26.2062 0 24 0H4ZM8 12C9.10625 12 10 12.8938 10 14V20C10 21.1063 9.10625 22 8 22C6.89375 22 6 21.1063 6 20V14C6 12.8938 6.89375 12 8 12ZM12 8C12 6.89375 12.8938 6 14 6C15.1062 6 16 6.89375 16 8V20C16 21.1063 15.1062 22 14 22C12.8938 22 12 21.1063 12 20V8ZM20 16C21.1063 16 22 16.8937 22 18V20C22 21.1063 21.1063 22 20 22C18.8937 22 18 21.1063 18 20V18C18 16.8937 18.8937 16 20 16Z" fill="#5BC663"/>
</svg>
