<svg width="108" height="96" viewBox="0 0 108 96" fill="none" xmlns="http://www.w3.org/2000/svg">
<path d="M34.7663 20.1769L34.6817 30.5967L39.5338 32.2417C39.5338 32.2417 38.1522 19.9539 38.0422 19.5793C38.3714 19.1551 38.5689 18.6234 38.5679 18.0446C38.5654 16.6646 37.4457 15.5479 36.0668 15.5505C34.688 15.5531 33.5722 16.674 33.5746 18.054C33.5762 18.9531 34.0536 19.7381 34.7664 20.1769L34.7663 20.1769Z" fill="#FFB6B6"/>
<path d="M15.6256 42.3318L15.4943 42.5699C15.0981 42.6399 15.1688 42.5328 15.6256 42.3318Z" fill="#5FD068"/>
<path d="M36.9166 41.3867C34.2841 40.497 31.544 40.1339 28.9254 40.0884C26.1493 40.0335 23.5155 40.3385 21.3144 40.7455C20.9949 39.3383 20.7036 37.8509 20.5124 36.4514L23.5775 34.7081L26.8932 33.7646L33.834 31.7906L33.9677 28.0914L34.7047 27.8017L38.845 26.1813L38.9407 26.146L41.3675 34.186C42.2907 37.4331 40.2305 40.7652 36.9166 41.3867L36.9166 41.3867Z" fill="#5FD068"/>
<path d="M22.0112 46.2527L22.7467 50.5714C22.7467 50.5714 22.5213 54.4995 23.1729 55.2652C23.8198 56.0274 39.0808 55.4885 39.0808 55.4885C39.0808 55.4885 37.8508 49.0633 38.1589 44.2757L22.0112 46.2527Z" fill="#FFB6B6"/>
<path d="M78.2118 88.6268L80.9365 86.8985L75.5269 75.2843L71.5055 77.8352L78.2118 88.6268Z" fill="#FFB6B6"/>
<path d="M88.6081 83.7907C88.5653 83.7237 88.5221 83.6625 88.4732 83.601C88.331 83.4344 88.1518 83.3007 87.9577 83.2188L87.9464 83.2122C87.7243 83.1111 87.4808 83.0731 87.2338 83.0934L86.145 83.1981L81.9317 83.596L81.0429 83.6833L79.5569 81.9194L78.9056 82.5363L76.6595 84.6742L76.0888 85.214L75.6483 85.6327L80.3684 92.3107L82.2171 90.7523L81.0803 88.7281L83.394 89.7627L84.8053 88.5704L85.7477 87.7835L88.2988 85.6345C88.5514 85.4213 88.7085 85.1437 88.7791 84.8434C88.8587 84.4909 88.8053 84.1129 88.6081 83.7907L88.6081 83.7907Z" fill="#2F2E41"/>
<path d="M77.2853 77.9306L72.4337 79.7657C67.8488 74.2911 63.3218 67.3397 60.8871 56.27C53.2902 64.9838 46.7699 69.7843 38.0673 73.8151C35.1277 75.1885 24.7951 75.1257 23.3657 72.1402C23.2989 72.0006 23.2374 71.8586 23.1815 71.7145C21.9028 68.378 23.7115 60.0003 23.1354 55.6544C26.5144 50.2444 33.6715 55.2063 38.8841 53.3083L44.4207 56.1204L55.715 44.2051C57.9863 41.8089 61.7997 41.7597 64.2323 44.0952C64.3608 44.2185 64.4839 44.3473 64.6014 44.4812C66.5107 48.2171 68.3292 51.886 69.9768 55.4288C70.5086 56.5724 72.3022 58.1739 71.5161 58.8182C70.73 59.4625 72.5355 61.1568 73.0077 62.2984C75.9148 69.3269 77.0919 72.9037 77.2853 77.9306L77.2853 77.9306Z" fill="#2F2E41"/>
<path d="M21.4205 19.1545L27.7005 19.1593C28.2434 19.1598 28.7263 19.5048 28.9029 20.0186L30.4145 24.4155L37.4003 30.9357C37.4003 30.9357 40.0884 34.8164 39.8086 39.6035C39.5288 44.3907 38.8842 53.3082 38.8842 53.3082C38.8842 53.3082 36.0024 49.294 33.2858 50.7284C32.8236 50.9725 32.6336 51.5168 32.1497 51.7686C31.9084 51.8942 31.3782 51.7263 31.1345 51.852C27.3938 53.782 23.6754 55.1928 23.1712 55.2645C21.278 55.5326 20.7786 54.0523 22.162 52.115C22.6136 51.4826 21.9058 50.7625 21.9058 50.7625C20.9867 50.1847 20.6757 49.4243 21.4032 48.3537L17.4386 29.3539C16.9625 27.0722 17.4804 24.6716 18.9401 22.8552C19.3741 22.3152 19.8185 21.9207 20.2123 21.8747C21.0983 21.7406 20.7504 19.7501 21.4205 19.1545Z" fill="#289672"/>
<path d="M92.5183 90.9589L93.8858 88.0377L83.029 81.2516L81.0107 85.563L92.5183 90.9589Z" fill="#FFB6B6"/>
<path d="M89.0602 84.1863L87.33 89.4779C77.9403 86.4238 68.4606 80.0011 58.9383 71.9864C47.7351 74.7339 37.1795 76.1505 27.7617 74.4316C24.5739 73.8606 22.3345 70.7081 22.8815 67.4432C22.9071 67.2905 22.9384 67.139 22.9754 66.9889C23.847 63.5239 29.5542 60.7779 31.5786 56.8924L43.1519 60.3932L43.8889 62.7037L46.5747 62.1627L48.8424 61.706L51.4383 61.1831L59.9481 59.469C63.1777 58.8185 66.3188 60.9757 66.9639 64.2873C66.998 64.4622 67.0245 64.6384 67.0436 64.8156L78.1049 74.5476C78.1049 74.5476 78.9952 77.0323 79.8504 76.0833C80.7057 75.1344 82.0298 78.0008 82.0298 78.0008L89.0602 84.1863Z" fill="#2F2E41"/>
<path d="M101.6 83.8539C101.173 83.6527 100.669 83.6752 100.262 83.9144L94.8901 87.054L92.8013 86.0739L92.3944 87.1037L91.1205 90.3013L90.8103 91.0852L97.8978 95.164L98.9244 92.9706L97.0397 91.6103L99.5751 91.5806L102.293 85.7695C102.628 85.0517 102.317 84.1897 101.6 83.8539L101.6 83.8539Z" fill="#2F2E41"/>
<path d="M15.3696 6.50673C15.1633 7.22834 14.9403 7.97995 14.4245 8.52486C13.9088 9.06977 13.0044 9.32554 12.397 8.8855C11.6543 8.34746 11.7833 7.223 11.9912 6.32917L12.6504 3.49485C12.7762 2.9542 12.9057 2.40403 13.1873 1.92583C13.469 1.44762 13.9318 1.04386 14.482 0.974012C15.0641 0.90012 15.6485 1.21953 16.0058 1.68526C16.3632 2.151 16.5214 2.74205 16.5811 3.32627C16.7396 4.87581 16.2309 6.48247 15.2096 7.65791L15.3696 6.50671L15.3696 6.50673Z" fill="#2F2E41"/>
<path d="M13.3148 2.26299C12.3495 0.928482 10.1666 0.989496 8.93969 2.08741C7.71279 3.18533 7.31794 4.96808 7.42552 6.61213C7.53262 8.25509 7.99002 15.0011 8.18377 16.3021C8.42623 17.9301 5.83158 18.9528 4.23545 18.5536C4.29537 19.6876 4.99544 20.7372 5.95568 21.3427C6.9165 21.9466 8.10434 22.1302 9.22849 21.9812C9.68336 21.9206 10.1332 21.8054 10.5616 21.6367C10.4023 21.1393 10.3162 20.6181 10.3138 20.0942C10.5015 20.5686 10.7771 21.0061 11.1195 21.3828C11.732 21.0607 12.2808 20.6252 12.7135 20.0856C13.5617 19.0284 13.9263 17.57 13.5669 16.262C13.149 14.7338 11.8741 13.6205 11.0019 12.2984C10.1287 10.9768 9.76171 8.97177 10.9897 7.97138C11.9248 7.20932 11.8609 7.38629 13.038 7.64692L13.3148 2.26297L13.3148 2.26299Z" fill="#2F2E41"/>
<path d="M28.6465 8.54396C28.411 12.4782 25.0336 15.4768 21.103 15.2414C17.1723 15.0061 13.7113 10.2234 13.9468 6.28914C14.1824 2.35492 18.0252 0.759038 21.9559 0.994348C25.8866 1.22966 28.8821 4.60974 28.6465 8.54396Z" fill="#2F2E41"/>
<path d="M23.1561 16.9211C26.9061 17.1456 30.1283 14.2848 30.353 10.5314C30.5777 6.77796 27.7198 3.55322 23.9698 3.32873C20.2198 3.10423 16.9976 5.96499 16.7729 9.7184C16.5482 13.4718 19.4061 16.6966 23.1561 16.9211Z" fill="#FFB6B6"/>
<path d="M32.1558 9.57894C30.1129 10.0079 28.049 10.4623 27.3326 9.29019C27.224 8.53578 26.9793 7.80346 26.607 7.1405C26.4873 7.85374 26.2753 8.55048 25.9804 9.20924C25.088 9.31524 23.8602 9.24172 23.8602 9.24172C23.5431 9.72042 22.1792 10.4624 22.0971 11.0542C21.9998 10.9823 21.8961 10.9239 21.7896 10.868C21.6562 10.8023 21.4976 10.7433 21.3594 10.8038C21.255 10.8498 21.1908 10.9586 21.1649 11.0698C21.139 11.181 21.1485 11.2971 21.1608 11.4133C21.1952 11.8031 21.234 12.2096 21.4364 12.5461C21.5786 12.7856 21.8306 12.9822 22.097 13.0284C22.2858 14.6482 22.7855 16.8531 22.7855 16.8531C15.9257 16.7174 14.182 11.5385 14.4451 7.14384L15.3647 5.54912L18.102 5.71299L18.3153 2.1512L25.9799 2.61005C29.6069 2.82718 32.3732 5.94865 32.1559 9.57892L32.1558 9.57894Z" fill="#2F2E41"/>
<path d="M41.9108 62.9998C40.5226 62.8245 39.5392 61.5561 39.7143 60.1666C39.732 60.0268 39.7635 59.8923 39.8022 59.7615L24.3114 46.6042L28.6681 44.9738L43.1266 58.1151C44.1958 58.5205 44.8912 59.6154 44.7417 60.801C44.5665 62.1905 43.2991 63.1749 41.9108 62.9998Z" fill="#FFB6B6"/>
<path d="M39.0779 53.5689L38.3461 53.7711L34.1813 54.9215C34.1813 54.9215 34.0963 54.8754 33.9434 54.7901C32.3646 53.8932 23.4662 48.7865 23.0135 47.1606C22.7922 46.3625 21.9966 43.7204 21.3145 40.7454C20.995 39.3383 20.7037 37.8509 20.5125 36.4514C20.2021 34.2073 20.1597 32.1784 20.6902 31.0388C22.2479 27.6943 25.2853 28.7604 25.2853 28.7604L26.8933 33.7645L28.9254 40.0883L30.5679 45.1999C33.0808 46.0356 36.0137 49.4323 39.0779 53.5689L39.0779 53.5689Z" fill="#289672"/>
<path d="M36.883 14.5789C36.8072 14.5744 36.7308 14.5815 36.6601 14.589C36.5676 14.4722 36.4442 14.3828 36.2893 14.3325C36.2207 14.305 36.1394 14.2943 36.0578 14.2894L30.8898 14.1147C30.849 14.1123 30.802 14.1153 30.7667 14.1191C30.5838 14.1432 30.4209 14.2272 30.3024 14.3489C30.2591 14.3874 30.2214 14.432 30.1891 14.4827C30.0671 14.6628 30.0239 14.8945 30.0858 15.1325C29.6492 17.4582 29.6255 19.7076 30.5893 21.7747C30.6801 22.114 30.9872 22.3608 31.3373 22.3759L34.6951 22.489C34.7126 22.4901 34.7301 22.4911 34.7479 22.4863C35.082 22.4771 35.3813 22.2666 35.4883 21.945C36.4127 20.2709 36.6874 18.5863 36.2649 16.8904C36.4236 16.976 36.6077 17.0281 36.7946 17.0334C37.2851 17.0511 37.7169 16.7782 37.9224 16.3747C38.008 16.2158 38.0596 16.0374 38.065 15.8503C38.088 15.1723 37.5546 14.6015 36.883 14.5789L36.883 14.5789ZM36.8098 16.6829C36.652 16.6793 36.5087 16.6297 36.3846 16.552L36.7032 15.6282L36.7954 15.3585C36.8449 15.215 36.8479 15.0688 36.8209 14.9325C36.8384 14.9335 36.8563 14.9287 36.8737 14.9298C37.3525 14.9467 37.7318 15.356 37.7148 15.8352C37.7089 15.9344 37.6913 16.0329 37.6569 16.1187C37.5251 16.4622 37.1952 16.6943 36.8098 16.6829Z" fill="#3F3D56"/>
<path d="M30.764 14.1203C30.8363 14.756 32.0457 15.2723 33.5364 15.2844C34.9067 15.3032 36.0529 14.8898 36.2916 14.3328C36.2216 14.3056 36.142 14.2923 36.06 14.2877L30.8922 14.1121C30.8477 14.1125 30.8031 14.1129 30.764 14.1203Z" fill="#289672"/>
</svg>
