<svg width="32" height="29" viewBox="0 0 32 29" fill="none" xmlns="http://www.w3.org/2000/svg">
<path d="M11 4V6.5H21V4C21 3.725 20.775 3.5 20.5 3.5H11.5C11.225 3.5 11 3.725 11 4ZM8 6.5V4C8 2.06875 9.56875 0.5 11.5 0.5H20.5C22.4312 0.5 24 2.06875 24 4V6.5H25.7563C26.55 6.5 27.3125 6.81875 27.875 7.38125L31.1187 10.625C31.6812 11.1875 32 11.95 32 12.7437V17.5H24V16.5C24 15.3938 23.1063 14.5 22 14.5C20.8937 14.5 20 15.3938 20 16.5V17.5H12V16.5C12 15.3938 11.1062 14.5 10 14.5C8.89375 14.5 8 15.3938 8 16.5V17.5H0V12.7437C0 11.95 0.31875 11.1875 0.88125 10.625L4.125 7.38125C4.6875 6.81875 5.45 6.5 6.24375 6.5H8ZM0 24.5V19.5H8V20.5C8 21.6063 8.89375 22.5 10 22.5C11.1062 22.5 12 21.6063 12 20.5V19.5H20V20.5C20 21.6063 20.8937 22.5 22 22.5C23.1063 22.5 24 21.6063 24 20.5V19.5H32V24.5C32 26.7062 30.2062 28.5 28 28.5H4C1.79375 28.5 0 26.7062 0 24.5Z" fill="#483838"/>
</svg>
