<svg width="220" height="197" viewBox="0 0 220 197" fill="none" xmlns="http://www.w3.org/2000/svg">
<g clip-path="url(#clip0_165_911)">
<path d="M209.214 182.92V183.136C209.214 183.192 209.213 183.252 209.209 183.308C209.154 186.256 208.121 189.102 206.27 191.403C206.177 191.523 206.078 191.639 205.978 191.755C205.827 191.932 205.672 192.103 205.512 192.271C205.499 192.285 205.485 192.301 205.469 192.314L205.462 192.321C205.444 192.339 205.425 192.36 205.407 192.378C205.126 192.667 204.832 192.943 204.524 193.208C204.462 193.26 204.398 193.315 204.332 193.367C201.948 195.338 198.952 196.428 195.854 196.45C195.831 196.453 195.806 196.453 195.783 196.453H195.703C195.68 196.453 195.657 196.453 195.634 196.45C195.555 196.45 195.477 196.448 195.397 196.446C192.298 196.373 189.319 195.233 186.969 193.219C186.905 193.167 186.841 193.112 186.78 193.056C186.535 192.842 186.3 192.617 186.074 192.385C186.056 192.367 186.038 192.346 186.019 192.328L186.012 192.321C185.996 192.308 185.983 192.292 185.969 192.278C185.777 192.078 185.592 191.871 185.414 191.66C185.316 191.544 185.22 191.425 185.127 191.305C183.323 189.021 182.318 186.213 182.265 183.308C182.261 183.254 182.261 183.197 182.261 183.14V182.929C182.261 182.904 182.261 182.879 182.263 182.854C182.296 179.943 183.283 177.123 185.074 174.823C185.168 174.702 185.264 174.584 185.362 174.468C185.542 174.25 185.732 174.039 185.926 173.832C185.939 173.816 185.953 173.802 185.969 173.786C185.969 173.784 185.971 173.782 185.974 173.779C185.992 173.761 186.01 173.741 186.031 173.723C186.284 173.461 186.548 173.209 186.823 172.968C186.885 172.911 186.949 172.856 187.013 172.804C189.416 170.766 192.464 169.636 195.621 169.614C195.644 169.612 195.669 169.612 195.692 169.612H195.84C198.924 169.631 201.907 170.707 204.288 172.658C204.352 172.713 204.416 172.765 204.48 172.82C204.814 173.102 205.133 173.402 205.437 173.716C205.455 173.734 205.473 173.754 205.492 173.773L205.496 173.777C205.512 173.791 205.528 173.809 205.542 173.823C205.711 174 205.873 174.184 206.031 174.371C206.131 174.486 206.227 174.602 206.323 174.723C208.163 177.04 209.179 179.9 209.211 182.854C209.213 182.876 209.214 182.898 209.214 182.92Z" fill="#5FD068"/>
<path d="M195.854 169.666H195.397V196.496H195.854V169.666Z" fill="white"/>
<path d="M209.214 182.854H182.154V183.308H209.214V182.854Z" fill="white"/>
<path d="M189.912 182.854C189.877 181.197 189.445 179.572 188.654 178.114C187.863 176.656 186.734 175.406 185.362 174.468C185.264 174.584 185.168 174.702 185.074 174.823C186.393 175.718 187.479 176.913 188.242 178.31C189.004 179.707 189.421 181.264 189.458 182.854C189.46 182.929 189.46 183.004 189.46 183.081C189.46 183.158 189.46 183.233 189.458 183.308C189.421 184.887 189.009 186.435 188.256 187.824C187.504 189.214 186.431 190.407 185.127 191.305C185.22 191.425 185.316 191.544 185.414 191.66C186.772 190.719 187.887 189.472 188.669 188.021C189.45 186.57 189.877 184.955 189.912 183.308C189.917 183.233 189.917 183.156 189.917 183.081C189.917 183.006 189.917 182.929 189.912 182.854Z" fill="white"/>
<path d="M201.793 183.308C201.79 183.233 201.79 183.158 201.79 183.081C201.79 183.004 201.79 182.929 201.793 182.854C201.83 181.234 202.262 179.649 203.051 178.232C203.84 176.816 204.963 175.612 206.323 174.723C206.227 174.602 206.131 174.486 206.031 174.371C204.619 175.303 203.455 176.561 202.638 178.038C201.821 179.515 201.375 181.168 201.338 182.854C201.334 182.929 201.334 183.006 201.334 183.081C201.334 183.156 201.334 183.233 201.338 183.308C201.375 184.984 201.815 186.626 202.623 188.096C203.43 189.566 204.581 190.821 205.978 191.755C206.078 191.639 206.177 191.523 206.27 191.403C204.925 190.512 203.816 189.311 203.036 187.901C202.257 186.492 201.83 184.917 201.793 183.308Z" fill="white"/>
<path d="M220 196.368H0V196.878H220V196.368Z" fill="#2F2E41"/>
<path d="M207.382 94.549C207.425 118.8 198.081 142.134 181.29 159.7C181.176 159.82 181.06 159.941 180.943 160.062C172.082 169.26 161.446 176.58 149.672 181.582C137.899 186.584 125.232 189.166 112.431 189.17C99.6311 189.175 86.9619 186.604 75.1847 181.611C63.4074 176.618 52.7652 169.306 43.8971 160.114C43.7806 159.993 43.6641 159.873 43.5499 159.753C26.8197 142.227 17.4651 118.987 17.4082 94.8075C17.3513 70.6276 26.5965 47.3443 43.2441 29.7412C43.3559 29.6184 43.4723 29.4979 43.5888 29.3773C52.4567 20.0991 63.1248 12.711 74.9461 7.66122C86.7673 2.61139 99.4954 0.00499638 112.359 8.3253e-05C125.222 -0.00482988 137.952 2.59184 149.777 7.63264C161.602 12.6734 172.276 20.0533 181.151 29.3248C181.267 29.4452 181.384 29.5657 181.496 29.6884C198.142 47.2132 207.407 70.4267 207.382 94.549Z" fill="#3F3D56"/>
<path d="M207.382 94.3579H17.408V94.8126H207.382V94.3579Z" fill="white"/>
<path d="M112.623 7.62939e-05H112.167V189.17H112.623V7.62939e-05Z" fill="white"/>
<path d="M70.8489 63.4108C66.7769 53.8213 60.8738 45.1102 53.4674 37.7612C50.404 34.709 47.1006 31.9055 43.5887 29.3773C43.4723 29.4979 43.3559 29.6184 43.2441 29.7412C63.5326 44.3214 76.7646 68.0627 76.7749 94.8262C76.7852 121.476 63.6834 145.141 43.5499 159.753C43.6641 159.873 43.7806 159.993 43.8971 160.114C47.3108 157.632 50.5253 154.888 53.5114 151.909C64.9067 140.544 72.6423 126.055 75.7303 110.292C78.8184 94.5292 77.119 78.2075 70.8489 63.4108Z" fill="white"/>
<path d="M148.015 94.799C148.005 68.0355 161.219 44.2841 181.496 29.6884C181.384 29.5657 181.267 29.4452 181.151 29.3248C170.777 36.8016 162.328 46.6177 156.495 57.97C150.661 69.3223 147.61 81.8885 147.59 94.6405C147.569 107.393 150.581 119.968 156.378 131.339C162.175 142.709 170.593 152.552 180.943 160.062C181.06 159.941 181.176 159.82 181.29 159.7C161.148 145.104 148.025 121.449 148.015 94.799Z" fill="white"/>
<path d="M89.2684 160.163L88.6357 172.764L95.2791 174.024L97.1772 162.053L89.2684 160.163Z" fill="#9D616A"/>
<path d="M122.169 164.259L123.751 174.654H129.762L128.496 163.629L122.169 164.259Z" fill="#9D616A"/>
<path d="M90.5338 135.907L89.2684 150.398L88.0029 162.683C88.0029 162.683 92.7483 160.793 97.1773 163.628C97.1773 163.628 100.024 162.998 99.3917 150.713L102.239 137.797L90.5338 135.907Z" fill="#EFEFEF"/>
<path d="M116.159 140.632C116.159 140.632 118.057 151.973 119.006 152.918C119.006 152.918 120.573 163.059 121.334 165.623C121.379 165.806 121.448 165.982 121.537 166.149C122.169 167.094 129.129 169.299 129.446 165.519C129.762 161.738 130.711 155.438 127.547 150.713L125.649 138.742L116.159 140.632Z" fill="#EFEFEF"/>
<path d="M135.298 139.215C134.982 142.68 117.582 142.05 114.419 142.05C113.419 142.05 112.135 141.895 111.495 140.175C110.401 137.236 109.8 132.943 109.597 131.263C109.515 132.82 108.794 136.587 106.991 139C105.893 140.475 104.077 140.182 102.081 139.845C98.7654 139.284 92.1756 137.243 90.3756 137.639C87.5284 138.269 84.1022 138.332 84.0485 137.639C84.0239 137.261 84.026 136.881 84.0548 136.502C84.4724 129.988 90.5338 112.328 90.5338 111.02C90.5338 109.445 93.381 102.83 93.381 102.83L122.486 99.3648C122.486 99.3648 134.014 130.331 135.599 137.954C135.735 138.613 135.324 138.94 135.298 139.215Z" fill="#EFEFEF"/>
<path d="M96.2282 172.449L88.0029 170.874L88.7938 183.947L95.2791 188.515C95.2791 188.515 94.6464 175.914 96.2282 172.449Z" fill="#EFEFEF"/>
<path d="M129.762 171.504C129.762 171.504 125.649 174.024 122.169 171.504L125.017 183.16L129.762 182.529C129.762 182.529 131.976 175.599 129.762 171.504Z" fill="#EFEFEF"/>
<path d="M130.711 181.269C130.711 181.269 124.068 181.584 124.068 182.214V192.61C124.068 193.555 125.333 194.815 125.017 195.445C124.7 196.075 126.915 197.65 131.976 196.705C137.038 195.76 135.14 192.61 135.14 192.61C135.14 192.61 130.078 183.79 130.711 181.269Z" fill="#2F2E41"/>
<path d="M87.8448 181.427C87.8448 181.427 95.4373 181.584 95.4373 182.214V192.61C95.4373 193.555 94.1719 194.815 94.4883 195.445C94.8046 196.075 92.5901 197.65 87.5284 196.705C82.4667 195.76 84.3649 192.61 84.3649 192.61C84.3649 192.61 88.4775 183.947 87.8448 181.427Z" fill="#2F2E41"/>
<path d="M135.773 139.372C135.456 142.837 117.108 143.152 113.944 143.152C112.944 143.152 112.135 141.895 111.495 140.175C114.89 139.504 129.49 136.767 135.599 137.954C135.715 138.418 135.774 138.894 135.773 139.372Z" fill="#5FD068"/>
<path d="M106.991 139C105.893 140.475 104.393 141.442 102.397 141.105C99.0817 140.544 92.1757 139.133 90.3756 139.53C87.5284 140.16 84.1022 138.332 84.0485 137.639C84.0239 137.261 84.026 136.881 84.0548 136.502C90.7141 136.323 102.508 136.401 106.991 139Z" fill="#5FD068"/>
<path d="M94.6464 61.2476C94.6464 61.2476 88.952 59.3575 83.8903 65.0278L82.9412 66.9179C82.9412 66.9179 75.6651 69.1231 73.4506 70.6982C73.4506 70.6982 66.8071 69.1231 58.5818 70.6982L50.3566 68.8081C50.3566 68.8081 34.5387 57.7824 32.957 64.7128C31.3752 71.6432 47.8257 74.1633 47.8257 74.1633L61.429 77.9436C61.429 77.9436 71.8688 80.4637 75.9814 78.5736C75.9814 78.5736 87.6866 77.9436 89.9011 73.5333L94.6464 75.7384V61.2476Z" fill="#9D616A"/>
<path d="M114.261 59.6725C114.261 59.6725 125.966 58.4124 130.395 64.3978L139.569 66.9179C139.569 66.9179 149.692 65.0278 153.489 65.9729L161.714 63.7678C161.714 63.7678 169.623 51.167 174.052 54.6322C178.481 58.0974 163.612 69.1231 163.612 69.1231L143.682 75.7384C143.682 75.7384 128.18 76.9985 125.017 71.3282L121.537 79.2036L108.25 76.0534L114.261 59.6725Z" fill="#9D616A"/>
<path d="M103.188 58.0974C107.905 58.0974 111.73 54.2894 111.73 49.592C111.73 44.8945 107.905 41.0865 103.188 41.0865C98.4706 41.0865 94.6464 44.8945 94.6464 49.592C94.6464 54.2894 98.4706 58.0974 103.188 58.0974Z" fill="#9D616A"/>
<path d="M98.759 54.6322V61.5626L101.923 72.5883L111.413 61.5626C111.413 61.5626 108.882 54.0022 108.882 52.7421C108.882 51.4821 98.759 54.6322 98.759 54.6322Z" fill="#9D616A"/>
<path d="M123.909 100.152C123.909 100.152 123.754 101.29 122.315 101.393C119.433 101.605 114.58 102.093 111.413 103.145C106.668 104.72 92.4319 104.72 92.4319 104.72L91.5082 76.1857L91.9574 74.0058C91.641 71.4857 94.1719 61.4051 94.1719 61.4051L96.0194 60.0474L97.7499 59.6757L98.2845 60.1451C98.2845 64.3411 102.397 68.3355 102.397 68.3355C108.408 65.5004 110.939 59.2 110.939 59.2L112.72 58.9385L114.583 59.1464L116.269 59.3355L115.684 59.83L115.368 60.4601C115.349 60.4979 115.384 60.4223 115.368 60.4601C110.762 70.191 116.323 74.5918 119.797 76.526C121.236 77.3324 121.379 78.1011 121.379 78.1011C121.379 78.1011 122.679 77.7136 122.644 79.0461C122.54 83.3587 121.752 93.0959 122.96 95.7421C124.542 99.2073 123.909 100.152 123.909 100.152Z" fill="#EFEFEF"/>
<path d="M94.1719 43.8419C94.3766 43.1429 94.6174 42.455 94.8932 41.7807C95.2538 40.9562 94.8932 38.4827 95.2538 38.4827H96.6964L98.4996 36.8337L99.5816 37.6582L101.024 36.8337L102.827 37.6582L104.631 36.8337L107.516 38.895L108.237 38.4827L108.958 39.7194H109.319L110.762 41.7807H111.483V43.8419H112.204V49.2011L111.255 52.8997L110.939 51.0849C110.939 51.0601 110.931 51.036 110.916 51.0162C110.901 50.9963 110.88 50.9819 110.856 50.9749C110.832 50.9679 110.807 50.9688 110.783 50.9775C110.76 50.9861 110.74 51.0021 110.727 51.0229L110.04 52.0868L109.6 50.4084C108.966 47.8947 107.477 45.6772 105.387 44.1326C102.718 42.2043 98.8603 41.286 94.8932 46.7276L94.1719 43.8419Z" fill="#2F2E41"/>
<path d="M96.0193 60.0474C95.4183 63.6858 93.6025 73.7475 91.5082 76.1857L91.4828 75.4234C91.1665 72.9033 93.381 60.6176 93.381 60.6176L96.0193 60.0474Z" fill="#5FD068"/>
<path d="M112.72 58.9385C111.132 61.9249 106.583 69.6334 102.239 69.1231C98.0473 68.6316 97.6992 62.4006 97.7499 59.6757L98.7591 59.4583C98.7591 63.6544 102.555 67.2329 102.555 67.2329C108.566 64.3978 110.48 58.6897 110.48 58.6897L112.72 58.9385Z" fill="#5FD068"/>
<path d="M123.118 76.9985C123.118 76.9985 123.084 77.8427 123.049 79.1753C122.169 79.1281 121.295 78.993 120.442 78.7721C110.67 76.2047 113.527 62.9897 114.583 59.1464L116.269 59.3354H116.272C116.32 59.3796 116.371 59.4268 116.421 59.4741C111.815 69.205 117.07 73.9365 120.543 75.8707C121.359 76.3368 122.222 76.7149 123.118 76.9985Z" fill="#5FD068"/>
<path d="M124.7 101.255C124.7 101.255 123.754 101.29 122.315 101.393C121.593 98.7555 121.016 96.0801 120.588 93.3794C120.17 90.4687 120.303 83.3083 120.442 78.7721C120.48 77.5844 120.515 76.5732 120.543 75.8707C121.359 76.3368 122.222 76.7149 123.118 76.9985C123.118 76.9985 123.084 77.8427 123.049 79.1753C122.945 83.4879 122.859 92.9384 124.068 95.5846C125.649 99.0498 124.7 101.255 124.7 101.255Z" fill="#5FD068"/>
<path d="M95.121 79.6517C95.121 79.6517 105.244 74.8287 115.051 79.6517H95.121Z" fill="#5FD068"/>
<path d="M92.9866 104.817C92.9866 104.817 95.9549 104.589 103.262 105.272C110.568 105.954 122.67 101.406 122.67 101.406" fill="#CACACA"/>
<path d="M53.0329 54.0018V54.2178C53.0329 54.2746 53.0329 54.3337 53.0283 54.3906C52.9735 57.3378 51.9402 60.184 50.0897 62.4849C49.996 62.6054 49.8979 62.7213 49.7974 62.8373C49.6467 63.0146 49.4914 63.1852 49.3316 63.3534C49.3179 63.3671 49.3042 63.383 49.2882 63.3966L49.2814 63.4034C49.2631 63.4216 49.2448 63.4421 49.2266 63.4603C48.9457 63.749 48.6512 64.0257 48.3429 64.2902C48.2813 64.3425 48.2173 64.397 48.1511 64.4493C45.7671 66.4206 42.7717 67.5099 39.6731 67.5324C39.6502 67.5347 39.6251 67.5347 39.6023 67.5347H39.5224C39.4995 67.5347 39.4767 67.5347 39.4539 67.5324C39.3739 67.5324 39.2963 67.5302 39.2164 67.5279C36.1171 67.4549 33.1389 66.3148 30.7886 64.3015C30.7247 64.2492 30.6607 64.1947 30.5991 64.1378C30.3547 63.9241 30.1196 63.699 29.8935 63.4671C29.8753 63.4489 29.857 63.4284 29.8387 63.4103L29.8319 63.4034C29.8159 63.3898 29.8022 63.3739 29.7885 63.3602C29.5967 63.1602 29.4117 62.9532 29.2336 62.7418C29.1354 62.6258 29.0395 62.5076 28.9459 62.3871C27.1424 60.1034 26.1378 57.2953 26.0849 54.3906C26.0803 54.336 26.0803 54.2791 26.0803 54.2223V54.0109C26.0803 53.9858 26.0803 53.9608 26.0826 53.9358C26.115 51.0253 27.102 48.2052 28.8934 45.9052C28.987 45.7847 29.0829 45.6664 29.1811 45.5505C29.3615 45.3322 29.551 45.1208 29.7451 44.9139C29.7588 44.8979 29.7725 44.8843 29.7885 44.8684C29.7885 44.8661 29.7907 44.8638 29.793 44.8616C29.8113 44.8434 29.8296 44.8229 29.8501 44.8047C30.1036 44.5432 30.3677 44.2916 30.6424 44.0499C30.7041 43.993 30.768 43.9384 30.832 43.8861C33.2353 41.8478 36.2833 40.7182 39.4402 40.6962C39.463 40.6939 39.4881 40.6939 39.511 40.6939H39.6594C42.7433 40.7132 45.7266 41.789 48.1077 43.7406C48.1716 43.7952 48.2356 43.8475 48.2995 43.9021C48.6329 44.184 48.9526 44.4841 49.2562 44.7979C49.2745 44.8161 49.2928 44.8365 49.311 44.8547L49.3156 44.8593C49.3316 44.8729 49.3476 44.8911 49.3613 44.9048C49.5303 45.0821 49.6924 45.2663 49.8499 45.4527C49.9504 45.5687 50.0463 45.6846 50.1422 45.8051C51.9822 48.1223 52.9981 50.9819 53.0306 53.9358C53.0325 53.9577 53.0333 53.9798 53.0329 54.0018Z" fill="#5FD068"/>
<path d="M39.6731 40.7485H39.2164V67.5779H39.6731V40.7485Z" fill="white"/>
<path d="M53.0329 53.9358H25.973V54.3906H53.0329V53.9358Z" fill="white"/>
<path d="M33.7318 53.9358C33.696 52.2788 33.2646 50.6541 32.4733 49.196C31.682 47.7379 30.5535 46.4883 29.1811 45.5505C29.0829 45.6664 28.987 45.7847 28.8934 45.9052C30.2128 46.8002 31.2989 47.9956 32.0613 49.3923C32.8238 50.7889 33.2407 52.3466 33.2774 53.9358C33.2797 54.0109 33.2797 54.0859 33.2797 54.1632C33.2797 54.2405 33.2797 54.3155 33.2774 54.3906C33.2404 55.9693 32.8286 57.5168 32.0758 58.9067C31.323 60.2965 30.2504 61.4892 28.9459 62.3871C29.0395 62.5076 29.1354 62.6258 29.2336 62.7418C30.5912 61.8012 31.7064 60.5544 32.4881 59.1031C33.2698 57.6518 33.696 56.0371 33.7318 54.3906C33.7364 54.3155 33.7364 54.2382 33.7364 54.1632C33.7364 54.0882 33.7364 54.0109 33.7318 53.9358Z" fill="white"/>
<path d="M45.612 54.3906C45.6097 54.3155 45.6097 54.2405 45.6097 54.1632C45.6097 54.0859 45.6097 54.0109 45.612 53.9358C45.6497 52.3166 46.0817 50.7308 46.8708 49.3145C47.6599 47.8983 48.7825 46.694 50.1422 45.8051C50.0463 45.6846 49.9504 45.5687 49.8499 45.4527C48.4385 46.3848 47.2745 47.6432 46.4574 49.1204C45.6403 50.5976 45.1944 52.2498 45.1576 53.9358C45.1531 54.0109 45.1531 54.0882 45.1531 54.1632C45.1531 54.2382 45.1531 54.3155 45.1576 54.3906C45.1941 56.0658 45.6347 57.7078 46.4422 59.1778C47.2497 60.6479 48.4005 61.9031 49.7974 62.8373C49.8979 62.7213 49.996 62.6054 50.0897 62.4849C48.7445 61.5939 47.6351 60.3928 46.8555 58.9837C46.076 57.5745 45.6495 55.9989 45.612 54.3906Z" fill="white"/>
</g>
<defs>
<clipPath id="clip0_165_911">
<rect width="220" height="197" fill="white"/>
</clipPath>
</defs>
</svg>
