<?xml version="1.0" encoding="UTF-8"?><svg id="Calque_1" xmlns="http://www.w3.org/2000/svg" viewBox="0 0 91 177"><defs><style>.cls-1{fill:#ffb6b6;}.cls-2{fill:#2f2e41;}.cls-3{fill:#3f3d56;}.cls-4{fill:#5fd068;}</style></defs><path class="cls-3" d="m84.52,0c-.14,0-.24.11-.24.24v17.48H31.64C14.43,17.72.43,31.74.43,48.98v3.03c-.29.37-.44.82-.43,1.29l.15,6.29c0,.35.11.68.28.96v56.93c0,.13.11.24.25.24.13,0,.24-.11.24-.24v-17.48h52.63c17.21,0,31.21-14.02,31.21-31.26V.24c0-.13-.11-.24-.24-.24Zm-.24,68.74c0,16.97-13.79,30.77-30.73,30.77H.92v-38.39c.28.23.64.39,1.02.43l4.72.55c.07.01.15.01.22.01.47,0,.93-.16,1.29-.46l3.35-2.76c.42-.35.67-.84.72-1.37,2.98.77,7.37,1.18,11.61,1.18,7.41,0,15.29-1.24,15.29-3.53s-7.88-3.52-15.29-3.52c-4.89,0-9.98.53-12.87,1.55-.26-.72-.93-1.23-1.7-1.3l-7.07-.66c-.45-.04-.91.07-1.29.32v-2.58c0-16.97,13.78-30.77,30.72-30.77l52.64.09v50.44ZM12.23,56.99c-.02-.1-.05-.2-.08-.3l-1-3.01c2.5-.87,7.04-1.55,12.7-1.55,8.73,0,14.8,1.61,14.8,3.04s-6.07,3.04-14.8,3.04c-4.92,0-9-.51-11.62-1.21h0Z"/><path class="cls-1" d="m60.08,64.97c0-1.05.42-2.08,1.2-2.84l11.05-10.79c.29-1.1.84-2.13,1.6-2.98.91-1.05,2.03-1.82,3.16-2.15,1.14-.34,2.15-.2,2.84.41,1.41,1.23,1.01,4-.89,6.19-.73.87-1.67,1.56-2.72,2l-10.03,10.36,5.52,8.39c1.07,1.25,1.31,2.98.61,4.5-.67,1.47-2.08,2.39-3.67,2.39-1.7,0-3.21-1.02-3.84-2.6l-4.54-11.4c-.19-.48-.28-.98-.28-1.48h0Z"/><path class="cls-3" d="m69.35,55.15c4.82,0,8.74-3.92,8.74-8.75s-3.91-8.75-8.74-8.75-8.74,3.92-8.74,8.75,3.91,8.75,8.74,8.75Z"/><path class="cls-1" d="m73.9,69.82l-6.5,4.97,8.25,5.68,4.14-8.89-5.89-1.75Z"/><path class="cls-1" d="m77.45,74.09c3.8,0,6.88-3.09,6.88-6.9s-3.08-6.9-6.88-6.9-6.88,3.09-6.88,6.9,3.08,6.9,6.88,6.9Z"/><path class="cls-2" d="m77.98,74.92s1.55-4.97.55-5.91-.97.03-.97.03l1.27-4.79s-.61-2.78-4.62-3.17c0,0,1.43-2.71,3.5-2.26,2.07.45,2.2.96,3.08.79.88-.17,2.7,1.43,2.7,1.43,0,0,.93-.76.83.18-.11.94.89,2.48.89,2.48,0,0,.57-.35.41.64-.16.99.58,1.51.58,1.51,0,0-.97.63-.66,1.12.31.49,1.55.88,1.08,1.38-.47.5-.12,1.66-1.71,2.89-1.59,1.23-6.94,3.69-6.94,3.69h0Z"/><path class="cls-1" d="m82.06,164.8l-.06-.06-16.25-16.91c-1.57-1.64-2.33-3.87-2.09-6.13l.85-7.81,8.23,1.5.31,4.93,13.82,22.46-4.82,2.03Z"/><path class="cls-2" d="m84.04,177c-.26,0-.52-.07-.76-.2-.57-.32-.89-.97-.79-1.62l.56-3.58-2.92-6.33.77-2.31,4.4-.24,1.47-1.47,1.64.29c.98.17,1.8.78,2.25,1.68.44.9.44,1.92-.02,2.81l-5.22,10.13c-.2.38-.53.66-.94.78-.15.04-.3.07-.46.07Z"/><path class="cls-2" d="m75.78,117.5l-3.15,19.93-15.29,7.29-2.43-19.45,20.87-7.78Z"/><path class="cls-1" d="m67.02,158.97l-.06-.06-16.25-16.91c-1.57-1.64-2.33-3.87-2.09-6.13l.85-7.81,8.23,1.5.31,4.93,13.82,22.46-4.82,2.03Z"/><path class="cls-2" d="m68.99,171.17c-.26,0-.52-.07-.76-.2-.57-.32-.89-.97-.79-1.62l.57-3.58-2.92-6.33.77-2.31,4.4-.25,1.47-1.47,1.64.29c.98.17,1.8.78,2.25,1.68.44.9.44,1.92-.02,2.81l-5.22,10.13c-.2.38-.53.66-.94.78-.15.05-.3.07-.46.07Z"/><path class="cls-2" d="m58.39,110.82l-1.71,4.65-7.67,12.54c-.23.37-.26.81-.1,1.21.16.4.49.69.91.8l16.92,4.35,7.83-11.02c2.23-3.14,3.39-6.99,3.26-10.85l-19.46-1.68Z"/><path class="cls-4" d="m75.86,115.56h-19.42v-.13s2.46-29.77,2.46-29.77c.32-3.9,2.34-7.44,5.53-9.7l.03-.02,13.28.49-2.88,26.83,3.83,7.73c.49.99.44,2.14-.14,3.07-.58.94-1.58,1.5-2.68,1.5h0Z"/><path class="cls-1" d="m70.55,81.92c-1.11,0-2.19-.45-2.99-1.3l-8.42-8.91c-1.11-1.17-1.4-2.88-.74-4.35l6.29-14.11c-.14-1.13,0-2.29.38-3.35.46-1.32,1.22-2.44,2.14-3.16.94-.74,1.93-.98,2.79-.67,1.76.62,2.41,3.35,1.46,6.08-.36,1.08-.98,2.06-1.79,2.86l-5.5,13.34,8.23,5.75c1.45.76,2.31,2.28,2.23,3.96-.08,1.62-1.05,2.99-2.53,3.58-.5.2-1.03.3-1.54.3Z"/><path class="cls-3" d="m9.59,55.72c1.56,1.89,2.41,4.23,2.96,6.58.6,2.56.98,5.19,1.24,7.8.27,2.64.36,5.33-.04,7.96-.19,1.27-.5,2.52-.94,3.72-.3.83-.67,1.88-.29,2.75.44,1.02,1.67,1.04,2.46.42,1.05-.82.96-2.28.84-3.47-.01-.14-.2-.26-.31-.13-.82.92-.84,2.37-.14,3.36.75,1.05,2.14,1.24,3.25.67.62-.32,1.11-.87,1.31-1.55h-.35c.24,1.61,1.82,2.92,3.46,2.77,1.6-.14,2.92-1.56,2.98-3.16,0-.15-.21-.25-.31-.13-.53.59-.59,1.43-.29,2.14.33.8,1.03,1.31,1.87,1.46,2.16.37,3.78-1.35,5.05-2.84.13-.15-.04-.41-.22-.29-.81.53-1.17,1.58-.91,2.5.27.97,1.22,1.55,2.2,1.48,1.11-.08,1.89-.89,2.04-1.98.18-1.32-.49-2.49-1.09-3.61-2.84-5.32-.33-11.18,1.66-16.31,1.18-3.03,2.27-6.19,2.15-9.5,0-.23-.37-.23-.36,0,.19,5.48-2.88,10.28-4.31,15.41-.68,2.43-1.06,5.03-.57,7.53.24,1.25.65,2.29,1.25,3.4.56,1.05,1.26,2.39.77,3.59-.46,1.11-1.98,1.47-2.89.68-.87-.75-.69-2.28.25-2.89l-.22-.29c-1.11,1.3-2.32,2.71-4.17,2.7-.8,0-1.66-.27-2.06-.99-.33-.61-.37-1.41.12-1.95l-.31-.13c-.05,1.42-1.26,2.72-2.7,2.81-1.46.09-2.81-1.08-3.02-2.51-.03-.19-.3-.16-.35,0-.39,1.3-2.09,2.04-3.29,1.34-1.17-.68-1.41-2.48-.52-3.47l-.31-.13c.11,1.1.25,2.54-.79,3.25-.4.27-.93.4-1.37.15-.43-.24-.52-.81-.51-1.27.01-1.04.49-1.96.77-2.94.34-1.18.56-2.39.69-3.6.26-2.48.14-5-.14-7.47-.27-2.46-.63-4.93-1.19-7.35-.57-2.44-1.46-4.84-3.07-6.79-.15-.18-.41.08-.26.26h0Z"/></svg>