<svg width="313" height="203" viewBox="0 0 313 203" fill="none" xmlns="http://www.w3.org/2000/svg">
<g clip-path="url(#clip0_165_655)">
<path d="M239.799 192.28L256.094 168.062L239.832 194.885L239.866 197.61C238.676 197.619 237.498 197.6 236.332 197.551L237.14 162.521L237.118 162.251L237.148 162.199L237.225 158.889L219.38 132.996L237.204 156.412L237.267 157.111L237.878 130.645L222.464 103.8L237.922 125.996L237.76 71.1648L237.761 70.9823L237.766 71.1618L238.789 114.376L252.837 96.8224L238.835 118.099L239.142 141.772L252.068 118.668L239.189 145.252L239.36 158.416L258.159 126.232L239.417 163.008L239.799 192.28Z" fill="#E6E6E6"/>
<path d="M294.64 193.043L310.935 168.825L294.673 195.648L294.707 198.373C293.518 198.382 292.339 198.362 291.173 198.314L291.981 163.284L291.959 163.014L291.989 162.962L292.066 159.652L274.221 133.758L292.045 157.174L292.108 157.874L292.719 131.408L277.305 104.563L292.763 126.759L292.601 71.9276L292.602 71.7451L292.607 71.9246L293.63 115.139L307.678 97.5851L293.676 118.862L293.983 142.535L306.91 119.431L294.03 146.015L294.201 159.179L313 126.995L294.258 163.771L294.64 193.043Z" fill="#E6E6E6"/>
<path d="M129.784 0H32.2699V131.816H129.784V0Z" fill="#E6E6E6"/>
<path d="M126.348 4.64494H35.7061V127.171H126.348V4.64494Z" fill="white"/>
<path d="M114.433 26.1357H47.9106C47.3718 26.135 46.8553 25.9206 46.4745 25.5396C46.0937 25.1585 45.8799 24.642 45.8799 24.1035C45.8799 23.565 46.0937 23.0486 46.4745 22.6675C46.8553 22.2865 47.3718 22.0721 47.9106 22.0714H114.433C114.701 22.071 114.965 22.1233 115.212 22.2253C115.459 22.3273 115.684 22.4769 115.873 22.6656C116.062 22.8544 116.212 23.0785 116.315 23.3253C116.417 23.572 116.47 23.8365 116.47 24.1035C116.47 24.3706 116.417 24.6351 116.315 24.8818C116.212 25.1286 116.062 25.3527 115.873 25.5415C115.684 25.7302 115.459 25.8798 115.212 25.9818C114.965 26.0838 114.701 26.1361 114.433 26.1357Z" fill="#E6E6E6"/>
<path d="M114.433 47.038H47.9106C47.3718 47.0373 46.8553 46.8228 46.4745 46.4418C46.0937 46.0608 45.8799 45.5443 45.8799 45.0058C45.8799 44.4673 46.0937 43.9508 46.4745 43.5698C46.8553 43.1887 47.3718 42.9743 47.9106 42.9736H114.433C114.701 42.9733 114.965 43.0256 115.212 43.1276C115.459 43.2295 115.684 43.3792 115.873 43.5679C116.062 43.7566 116.212 43.9808 116.315 44.2275C116.417 44.4742 116.47 44.7387 116.47 45.0058C116.47 45.2729 116.417 45.5374 116.315 45.7841C116.212 46.0308 116.062 46.255 115.873 46.4437C115.684 46.6324 115.459 46.7821 115.212 46.884C114.965 46.986 114.701 47.0383 114.433 47.038Z" fill="#E6E6E6"/>
<path d="M114.433 67.9402H47.9106C47.3718 67.9395 46.8553 67.7251 46.4745 67.3441C46.0937 66.9631 45.8799 66.4466 45.8799 65.9081C45.8799 65.3696 46.0937 64.8531 46.4745 64.4721C46.8553 64.091 47.3718 63.8766 47.9106 63.8759H114.433C114.701 63.8756 114.965 63.9279 115.212 64.0298C115.459 64.1318 115.684 64.2814 115.873 64.4702C116.062 64.6589 116.212 64.883 116.315 65.1298C116.417 65.3765 116.47 65.641 116.47 65.9081C116.47 66.1752 116.417 66.4396 116.315 66.6864C116.212 66.9331 116.062 67.1572 115.873 67.346C115.684 67.5347 115.459 67.6843 115.212 67.7863C114.965 67.8883 114.701 67.9406 114.433 67.9402Z" fill="#E6E6E6"/>
<path d="M114.433 88.8425H47.9106C47.3718 88.8418 46.8553 88.6274 46.4745 88.2463C46.0937 87.8653 45.8799 87.3488 45.8799 86.8103C45.8799 86.2718 46.0937 85.7553 46.4745 85.3743C46.8553 84.9933 47.3718 84.7789 47.9106 84.7782H114.433C114.701 84.7778 114.965 84.8301 115.212 84.9321C115.459 85.0341 115.684 85.1837 115.873 85.3724C116.062 85.5612 116.212 85.7853 116.315 86.032C116.417 86.2788 116.47 86.5432 116.47 86.8103C116.47 87.0774 116.417 87.3419 116.315 87.5886C116.212 87.8354 116.062 88.0595 115.873 88.2482C115.684 88.437 115.459 88.5866 115.212 88.6886C114.965 88.7905 114.701 88.8428 114.433 88.8425Z" fill="#E6E6E6"/>
<path d="M114.433 109.745H47.9106C47.3718 109.744 46.8553 109.53 46.4745 109.149C46.0937 108.768 45.8799 108.251 45.8799 107.713C45.8799 107.174 46.0937 106.658 46.4745 106.277C46.8553 105.896 47.3718 105.681 47.9106 105.68H114.433C114.701 105.68 114.965 105.732 115.212 105.834C115.459 105.936 115.684 106.086 115.873 106.275C116.062 106.463 116.212 106.688 116.315 106.934C116.417 107.181 116.47 107.446 116.47 107.713C116.47 107.98 116.417 108.244 116.315 108.491C116.212 108.738 116.062 108.962 115.873 109.151C115.684 109.339 115.459 109.489 115.212 109.591C114.965 109.693 114.701 109.745 114.433 109.745Z" fill="#E6E6E6"/>
<path d="M102.814 26.1357H47.6202C47.3529 26.1361 47.0882 26.0838 46.8412 25.9818C46.5941 25.8798 46.3697 25.7302 46.1806 25.5415C45.9915 25.3527 45.8414 25.1286 45.7391 24.8818C45.6367 24.6351 45.584 24.3706 45.584 24.1035C45.584 23.8365 45.6367 23.572 45.7391 23.3253C45.8414 23.0785 45.9915 22.8544 46.1806 22.6656C46.3697 22.4769 46.5941 22.3273 46.8412 22.2253C47.0882 22.1233 47.3529 22.071 47.6202 22.0714H102.814C103.353 22.0721 103.869 22.2865 104.25 22.6675C104.631 23.0486 104.845 23.565 104.845 24.1035C104.845 24.642 104.631 25.1585 104.25 25.5396C103.869 25.9206 103.353 26.135 102.814 26.1357Z" fill="#5FD068"/>
<path d="M85.6747 47.038H47.6201C47.0808 47.038 46.5636 46.8239 46.1823 46.4428C45.8009 46.0616 45.5867 45.5448 45.5867 45.0058C45.5867 44.4668 45.8009 43.9499 46.1823 43.5688C46.5636 43.1877 47.0808 42.9736 47.6201 42.9736H85.6747C85.9419 42.9733 86.2066 43.0256 86.4537 43.1276C86.7007 43.2295 86.9251 43.3792 87.1143 43.5679C87.3034 43.7566 87.4534 43.9808 87.5557 44.2275C87.6581 44.4742 87.7108 44.7387 87.7108 45.0058C87.7108 45.2729 87.6581 45.5374 87.5557 45.7841C87.4534 46.0308 87.3034 46.255 87.1143 46.4437C86.9251 46.6324 86.7007 46.7821 86.4537 46.884C86.2066 46.986 85.9419 47.0383 85.6747 47.038Z" fill="#5FD068"/>
<path d="M64.7592 67.9402H47.6202C47.3529 67.9406 47.0882 67.8883 46.8412 67.7863C46.5941 67.6843 46.3697 67.5347 46.1806 67.346C45.9915 67.1572 45.8414 66.9331 45.7391 66.6864C45.6367 66.4396 45.584 66.1752 45.584 65.9081C45.584 65.641 45.6367 65.3765 45.7391 65.1298C45.8414 64.883 45.9915 64.6589 46.1806 64.4702C46.3697 64.2814 46.5941 64.1318 46.8412 64.0298C47.0882 63.9279 47.3529 63.8756 47.6202 63.8759H64.7592C65.2981 63.8766 65.8146 64.091 66.1954 64.4721C66.5761 64.8531 66.79 65.3696 66.79 65.9081C66.79 66.4466 66.5761 66.9631 66.1954 67.3441C65.8146 67.7251 65.2981 67.9395 64.7592 67.9402Z" fill="#5FD068"/>
<path d="M108.043 88.8425H47.6201C47.0808 88.8425 46.5636 88.6284 46.1823 88.2473C45.8009 87.8662 45.5867 87.3493 45.5867 86.8103C45.5867 86.2714 45.8009 85.7545 46.1823 85.3734C46.5636 84.9923 47.0808 84.7782 47.6201 84.7782H108.043C108.582 84.7782 109.099 84.9923 109.48 85.3734C109.862 85.7545 110.076 86.2714 110.076 86.8103C110.076 87.3493 109.862 87.8662 109.48 88.2473C109.099 88.6284 108.582 88.8425 108.043 88.8425Z" fill="#5FD068"/>
<path d="M94.68 109.745H47.6202C47.3529 109.745 47.0882 109.693 46.8412 109.591C46.5941 109.489 46.3697 109.339 46.1806 109.151C45.9915 108.962 45.8414 108.738 45.7391 108.491C45.6367 108.244 45.584 107.98 45.584 107.713C45.584 107.446 45.6367 107.181 45.7391 106.934C45.8414 106.688 45.9915 106.463 46.1806 106.275C46.3697 106.086 46.5941 105.936 46.8412 105.834C47.0882 105.732 47.3529 105.68 47.6202 105.68H94.68C94.9472 105.68 95.2119 105.732 95.4589 105.834C95.706 105.936 95.9304 106.086 96.1195 106.275C96.3087 106.463 96.4587 106.688 96.561 106.934C96.6634 107.181 96.7161 107.446 96.7161 107.713C96.7161 107.98 96.6634 108.244 96.561 108.491C96.4587 108.738 96.3087 108.962 96.1195 109.151C95.9304 109.339 95.706 109.489 95.4589 109.591C95.2119 109.693 94.9472 109.745 94.68 109.745Z" fill="#5FD068"/>
<path d="M311.474 197.612H0V198.314H311.474V197.612Z" fill="#3F3D56"/>
<path d="M177.48 94.9634C177.48 94.9634 175.275 78.8058 171.601 83.2124C167.926 87.619 171.601 94.2289 171.601 94.2289L174.54 97.9011L177.48 95.6978V94.9634Z" fill="#9F616A"/>
<path d="M186.299 100.104C186.299 100.104 178.95 92.0256 177.48 93.4945C176.01 94.9634 171.601 95.6978 172.336 98.6355C173.071 101.573 188.503 111.121 188.503 111.121L186.299 100.104Z" fill="#5FD068"/>
<path opacity="0.1" d="M186.299 100.104C186.299 100.104 178.95 92.0256 177.48 93.4945C176.01 94.9634 171.601 95.6978 172.336 98.6355C173.071 101.573 188.503 111.121 188.503 111.121L186.299 100.104Z" fill="black"/>
<path d="M228.188 99.37V105.245C228.188 105.245 228.923 118.465 224.513 117.731C220.104 116.996 222.309 105.98 222.309 105.98L223.044 99.37L228.188 99.37Z" fill="#9F616A"/>
<path d="M225.983 141.967C225.983 141.967 232.597 152.249 234.802 152.984C237.007 153.718 248.765 160.328 250.235 166.938L260.523 180.158L255.379 186.767C255.379 186.767 231.862 161.797 225.248 159.593C218.634 157.39 212.02 146.374 212.02 146.374L225.983 141.967Z" fill="#9F616A"/>
<path d="M173.806 125.075C173.806 125.075 159.842 127.278 162.047 136.092C164.252 144.905 185.564 163.266 185.564 163.266L186.299 167.672L194.383 169.141L198.057 165.469L197.322 163.266C197.322 163.266 188.503 155.187 187.769 152.249C187.034 149.311 178.95 137.56 175.275 136.826L180.42 133.888L173.806 125.075Z" fill="#9F616A"/>
<path d="M258.319 180.158C258.319 180.158 255.379 175.751 259.788 176.485C264.198 177.22 267.137 177.954 267.137 180.892C267.137 183.83 263.463 204.394 259.054 202.925C254.644 201.456 258.319 194.846 258.319 194.846C258.319 194.846 256.114 188.971 254.644 188.236C253.174 187.502 253.174 183.83 254.644 183.83C256.114 183.83 259.054 181.626 258.319 180.158Z" fill="#2F2E41"/>
<path d="M195.852 164C195.852 164 195.852 160.328 198.792 164C201.732 167.672 203.201 170.61 200.262 172.813C197.322 175.017 187.034 180.158 187.034 180.158C187.034 180.158 176.01 182.361 177.48 177.22C177.48 177.22 184.829 173.548 184.829 170.61C184.829 167.672 184.829 162.531 187.034 164C189.238 165.469 195.852 166.203 195.852 164Z" fill="#2F2E41"/>
<path d="M209.815 108.918C209.815 108.918 220.104 110.386 219.369 125.075C219.369 125.075 232.597 138.295 228.923 142.702C225.248 147.108 217.164 155.187 214.225 152.984C211.285 150.78 202.466 133.888 202.466 133.888C202.466 133.888 181.889 141.233 178.215 137.56C174.54 133.888 170.866 125.075 170.866 125.075L189.238 115.527L209.815 108.918Z" fill="#2F2E41"/>
<path d="M181.154 67.0549C186.025 67.0549 189.973 63.1091 189.973 58.2417C189.973 53.3743 186.025 49.4285 181.154 49.4285C176.284 49.4285 172.336 53.3743 172.336 58.2417C172.336 63.1091 176.284 67.0549 181.154 67.0549Z" fill="#9F616A"/>
<path d="M187.769 58.9762C187.769 58.9762 192.913 67.0549 194.383 67.7893C195.852 68.5238 184.094 75.8681 184.094 75.8681C184.094 75.8681 184.094 66.3205 180.42 64.1172L187.769 58.9762Z" fill="#9F616A"/>
<path d="M188.503 67.0549C188.503 67.0549 200.262 63.3828 202.466 69.2582C204.671 75.1337 209.815 86.1502 209.081 93.4945C208.346 100.839 206.876 99.37 209.081 101.573C211.285 103.777 212.755 102.308 212.02 105.245C211.285 108.183 210.55 108.183 211.285 109.652C212.02 111.121 202.466 116.262 194.383 116.996L186.299 117.731C186.299 117.731 186.299 104.511 184.829 101.573C183.359 98.6355 180.42 92.7601 180.42 90.5568V84.727C180.42 80.8468 181.433 77.0338 183.359 73.6648C183.359 73.6648 187.769 67.0549 188.503 67.0549Z" fill="#5FD068"/>
<path d="M197.322 69.9926C197.322 69.9926 224.513 72.1959 227.453 79.5403C230.393 86.8846 231.862 101.573 228.923 101.573C225.983 101.573 222.309 103.042 221.574 101.573C220.839 100.104 217.899 85.4157 217.164 85.4157C216.429 85.4157 194.383 83.2124 194.383 83.2124C194.383 83.2124 184.829 71.4615 197.322 69.9926Z" fill="#5FD068"/>
<path d="M180.8 56.0568C180.8 56.0568 178.46 51.9924 175.535 55.5227C172.609 59.053 167.851 52.5655 168.581 51.1812C169.312 49.7969 171.891 51.2434 176.313 49.7991C180.734 48.3547 189.25 45.4123 190.677 55.0106C192.103 64.609 188.706 63.6027 188.706 63.6027C188.706 63.6027 187.149 55.0976 185.742 57.5406L184.334 59.9837L183.114 60.2839L180.8 56.0568Z" fill="#2F2E41"/>
</g>
<defs>
<clipPath id="clip0_165_655">
<rect width="313" height="203" fill="white"/>
</clipPath>
</defs>
</svg>
