<svg width="232" height="174" viewBox="0 0 232 174" fill="none" xmlns="http://www.w3.org/2000/svg">
<g clip-path="url(#clip0_165_853)">
<path d="M0 173.419C0 173.711 0.234371 173.944 0.526223 173.944H231.474C231.766 173.944 232 173.711 232 173.419C232 173.128 231.766 172.894 231.474 172.894H0.526223C0.234368 172.894 0 173.128 0 173.419Z" fill="#3F3D56"/>
<path d="M101.917 158.611H112.107L113.305 163.96C113.305 163.96 121.008 172.987 112.3 172.987C103.592 172.987 88.8548 175.662 88.8548 172.319C88.8548 168.975 99.5726 166.969 99.5726 166.969L101.917 158.611V158.611Z" fill="#2F2E41"/>
<path d="M165.964 133.083L165.772 122.913L171.108 121.617C171.108 121.617 180.004 113.759 180.168 122.45C180.332 131.141 183.289 145.798 179.94 145.861C176.591 145.924 174.38 135.265 174.38 135.265L165.964 133.083V133.083Z" fill="#2F2E41"/>
<path d="M135.718 19.7186L137.797 27.3961L128.442 32.1686L124.908 22.0011L135.718 19.7186Z" fill="#FFB6B6"/>
<path d="M129.603 1.96399C135.651 1.96399 140.554 6.858 140.554 12.8951C140.554 18.9321 135.651 23.8261 129.603 23.8261C123.555 23.8261 118.652 18.9321 118.652 12.8951C118.652 6.858 123.555 1.96399 129.603 1.96399Z" fill="#FFB6B6"/>
<path d="M142.145 68.5578C142.771 67.4941 143.642 66.5953 144.687 65.9368L150.664 54.5109L156.027 57.5088L149.387 68.7761C149.287 70.005 148.893 71.192 148.239 72.2379C146.638 74.8781 143.977 76.1935 142.294 75.177C140.611 74.1604 140.545 71.1968 142.145 68.5578H142.145V68.5578Z" fill="#FFB6B6"/>
<path d="M122.348 68.3442L138.379 68.2391C138.379 68.2391 145.67 81.612 137.632 95.3192L136.292 123.402L169.785 121.731V133.862C169.785 133.862 126.244 139.784 124.569 136.441C122.895 133.098 119.546 112.227 119.546 112.227L116.163 118.167L112.847 161.181H102.492L100.213 114.71L120.215 77.6001L122.348 68.3442H122.348V68.3442Z" fill="#2F2E41"/>
<path d="M126.163 25.9977L138.433 25.1813L142.931 39.0614L138.433 68.4546L121.664 71.3123L117.984 40.6944L126.163 25.9977Z" fill="#5FD068"/>
<path d="M138.792 27.2225L137.615 40.6944L148.657 47.2262L144.453 62.3264L152.747 66.8217C152.747 66.8217 161.336 50.9003 159.7 45.5932C158.064 40.2861 138.792 27.2225 138.792 27.2225H138.792Z" fill="#5FD068"/>
<path opacity="0.1" d="M135.756 39.187C135.756 39.187 135.888 63.0687 130.458 63.7005C125.027 64.3323 121.25 62.816 121.25 62.816" fill="black"/>
<path d="M100.181 50.4084C101.413 50.5042 102.604 50.8932 103.654 51.5427L116.562 51.9085L116.208 58.0343L103.153 57.0035C102.002 57.4512 100.76 57.6173 99.532 57.4879C96.4532 57.2062 94.1039 55.3931 94.2834 53.438C94.463 51.4828 97.1035 50.1263 100.181 50.4084V50.4084L100.181 50.4084Z" fill="#FFB6B6"/>
<path d="M106.88 57.9961L106.744 57.9433L108.484 50.7929L119.88 50.7338L122.01 33.1156C122.428 29.6607 125.372 27.0553 128.858 27.0553C130.816 27.0553 132.689 27.8898 133.996 29.3446C135.301 30.7978 135.928 32.7444 135.716 34.6847C134.414 46.5747 131.991 60.9799 127.842 62.0844C127.053 62.2943 126.13 62.3861 125.117 62.3861C118.279 62.3861 107.406 58.2002 106.88 57.9961V57.9962V57.9961Z" fill="#5FD068"/>
<path d="M123.242 7.22235C122.456 8.57818 121.64 9.9699 120.397 10.9264C119.154 11.8829 117.366 12.3081 115.998 11.5414C114.653 10.7879 114.074 9.0383 114.405 7.535C114.737 6.03171 115.826 4.78234 117.108 3.92748C118.391 3.07263 119.866 2.55973 121.323 2.05563C123.549 1.28522 125.793 0.510684 128.126 0.176271C134.489 -0.735949 141.248 1.94645 145.247 6.9708C147.135 9.34309 148.406 12.1343 149.658 14.8941C150.682 17.1501 151.728 19.5262 151.547 21.9962C151.415 23.807 150.66 25.7907 151.637 27.3225C152.129 28.0942 152.968 28.5618 153.649 29.174C154.33 29.7862 154.889 30.7352 154.553 31.5862C154.209 32.4571 153.124 32.7711 152.546 33.5078C151.554 34.7705 152.399 36.618 153.399 37.8747C154.398 39.1313 155.625 40.5405 155.309 42.1136C155.081 43.2486 154.048 44.0937 152.931 44.4057C151.815 44.7176 150.624 44.5857 149.484 44.3754C143.911 43.3479 138.7 40.4505 134.892 36.261C131.084 32.0715 128.7 26.6145 128.215 20.9781C128.002 18.4963 128.144 15.9761 127.654 13.5336C127.165 11.0912 125.896 8.63246 123.664 7.51811" fill="#2F2E41"/>
</g>
<defs>
<clipPath id="clip0_165_853">
<rect width="232" height="174" fill="white"/>
</clipPath>
</defs>
</svg>
