<svg width="222" height="180" viewBox="0 0 222 180" fill="none" xmlns="http://www.w3.org/2000/svg">
<g clip-path="url(#clip0_165_951)">
<path opacity="0.1" d="M58.0362 0.200495C78.7443 3.03639 95.558 22.7562 114.215 35.0621C118.373 37.8045 122.73 40.2193 127.337 40.9344C142.599 43.3047 156.671 26.8797 172.004 28.2208C184.431 29.3079 194.97 42.4782 199.441 57.9698C203.913 73.4614 203.227 90.7886 200.744 107.051C196.856 132.447 188.244 157.431 173.251 173.95C170.777 176.676 168.014 179.227 164.837 179.846C159.542 180.891 154.632 176.402 150.049 172.691C129.368 155.934 103.222 151.679 80.1315 161.312C72.3114 164.573 64.832 169.331 56.8293 171.679C41.4185 176.193 23.9791 170.49 13.5159 154.749C3.05278 139.008 1.35159 113.135 11.3204 96.828C15.4821 90.0223 21.218 85.2171 25.5868 78.6497C36.5643 62.1646 32.5118 45.4968 31.1535 26.1646C29.8152 7.11534 45.9386 -1.4547 58.0362 0.200495Z" fill="#5FD068"/>
<g opacity="0.2">
<path d="M152.167 121.411C152.167 121.411 158.292 127.539 154.839 136.633C151.385 145.726 160.766 160.848 160.766 160.848L160.479 160.801C147.898 158.574 141.648 144.185 148.644 133.492C151.241 129.524 153.376 124.859 152.167 121.411Z" fill="#5FD068"/>
<path opacity="0.1" d="M152.167 121.522C152.167 121.522 158.292 127.651 154.839 136.744C151.385 145.838 160.766 160.96 160.766 160.96L160.479 160.913C147.898 158.685 141.648 144.296 148.644 133.603C151.241 129.625 153.376 124.962 152.167 121.522Z" fill="black"/>
<path d="M152.167 121.411C152.167 121.411 155.625 128.923 152.167 135.051C148.709 141.18 151.575 158.378 160.762 160.848" stroke="#535461" stroke-miterlimit="10"/>
<path d="M141.258 146.205C141.258 146.205 148.248 145.092 148.885 151.358C149.522 157.625 162.325 158.487 162.325 158.487L162.084 158.647C151.512 165.591 141.408 163.069 142.935 153.851C143.498 150.431 143.452 146.987 141.258 146.205Z" fill="#5FD068"/>
<path d="M141.258 146.205C141.258 146.205 146.685 147.397 146.237 152.332C145.79 157.266 154.293 163.183 162.325 158.494" stroke="#535461" stroke-miterlimit="10"/>
</g>
<g opacity="0.2">
<path d="M79.5148 111.76C79.5148 111.76 84.605 116.853 81.7415 124.407C78.8779 131.961 86.6669 144.528 86.6669 144.528L86.4286 144.488C75.9766 142.641 70.7817 130.676 76.5934 121.796C78.7443 118.493 80.519 114.619 79.5148 111.76Z" fill="#5FD068"/>
<path opacity="0.1" d="M79.5147 111.845C79.5147 111.845 84.6049 116.938 81.7414 124.492C78.8779 132.046 86.6668 144.613 86.6668 144.613L86.4175 144.579C75.9654 142.732 70.7706 130.767 76.5822 121.888C78.7443 118.577 80.519 114.703 79.5147 111.845Z" fill="black"/>
<path d="M79.5148 111.76C79.5148 111.76 82.3872 117.998 79.5148 123.093C76.6424 128.188 79.0227 142.474 86.6558 144.528" stroke="#535461" stroke-miterlimit="10"/>
<path d="M70.45 132.356C70.45 132.356 76.2638 131.436 76.7871 136.637C77.3104 141.839 87.9539 142.574 87.9539 142.574L87.7535 142.708C78.9692 148.478 70.5724 146.384 71.8394 138.723C72.3092 135.864 72.2714 132.995 70.45 132.356Z" fill="#5FD068"/>
<path d="M70.45 132.356C70.45 132.356 74.9567 133.345 74.5871 137.446C74.2175 141.547 81.2805 146.464 87.9472 142.57" stroke="#535461" stroke-miterlimit="10"/>
</g>
<g opacity="0.2">
<path d="M58.1386 79.6812C58.1386 79.6812 63.2288 84.7738 60.3653 92.328C57.5018 99.8822 65.2907 112.449 65.2907 112.449L65.0525 112.409C54.6004 110.562 49.4056 98.5968 55.2172 89.7171C57.3682 86.4134 59.1429 82.5394 58.1386 79.6812Z" fill="#5FD068"/>
<path opacity="0.1" d="M58.1386 79.7658C58.1386 79.7658 63.2288 84.8584 60.3653 92.4126C57.5018 99.9668 65.2907 112.533 65.2907 112.533L65.0413 112.5C54.5893 110.653 49.3944 98.6881 55.206 89.8084C57.3682 86.498 59.1428 82.624 58.1386 79.7658Z" fill="black"/>
<path d="M58.1386 79.6812C58.1386 79.6812 61.0111 85.9188 58.1386 91.0136C55.2662 96.1084 57.6465 110.395 65.2796 112.449" stroke="#535461" stroke-miterlimit="10"/>
<path d="M49.0738 100.276C49.0738 100.276 54.8877 99.3564 55.4109 104.558C55.9342 109.76 66.5777 110.495 66.5777 110.495L66.3773 110.629C57.5931 116.399 49.1963 114.304 50.4632 106.643C50.9331 103.785 50.8952 100.916 49.0738 100.276Z" fill="#5FD068"/>
<path d="M49.0738 100.276C49.0738 100.276 53.5806 101.266 53.211 105.367C52.8413 109.468 59.9044 114.385 66.571 110.491" stroke="#535461" stroke-miterlimit="10"/>
</g>
<path d="M3.28656 131.966V128.929L65.4755 111.48L76.5978 110.214V112.997L14.6627 135.252L3.28656 131.966Z" fill="#DFE5EE"/>
<path opacity="0.05" d="M3.28656 131.966V128.929L65.4755 111.48L76.5978 110.214V112.997L14.6627 135.252L3.28656 131.966Z" fill="black"/>
<path d="M3.28656 128.929L65.4755 108.443L76.3462 110.214L14.6627 132.218L3.28656 128.929Z" fill="#DFE5EE"/>
<path d="M16.9383 82.6463H12.8925V129.689H16.9383V82.6463Z" fill="#DFE5EE"/>
<path d="M65.4755 71.7705H61.4296V112.997H65.4755V71.7705Z" fill="#DFE5EE"/>
<path d="M75.5869 58.872V71.5188L25.088 82.8045L19.1138 84.1411L4.29749 87.4515L0 86.1861V71.5188L22.9148 67.148L28.6173 66.0609L70.2785 58.1146L75.5869 58.872Z" fill="#DFE5EE"/>
<path opacity="0.05" d="M75.5869 58.872V71.5188L25.088 82.8045L19.1138 84.1411L4.29749 87.4515L0 86.1861V71.5188L22.9148 67.148L28.6173 66.0609L70.2785 58.1146L75.5869 58.872Z" fill="black"/>
<path opacity="0.05" d="M16.9383 82.6463V85.1324L12.8925 86.0369V82.6463H16.9383Z" fill="black"/>
<path opacity="0.05" d="M65.4755 71.7705V74.2856L61.4296 75.1879V71.7705H65.4755Z" fill="black"/>
<path d="M75.5869 58.872V71.5188L55.0836 76.1012L49.1206 77.4334L25.088 82.8045L19.1138 84.1411L4.29749 87.4515L4.55133 73.0359L25.1414 68.9302L30.9019 67.7829H30.9041L54.4423 63.0891L60.1916 61.9418L75.5869 58.872Z" fill="#DFE5EE"/>
<path d="M30.9041 67.7829L25.088 82.8045L19.1138 84.1411L25.1415 68.9302L22.9148 67.148L28.6173 66.0609L30.9019 67.7829H30.9041Z" fill="#5FD068"/>
<path d="M60.4811 62.1601L55.0836 76.1012L49.1205 77.4334L54.7184 63.3074L54.4423 63.0891L52.4917 61.5252L58.1943 60.4381L60.1916 61.9418L60.4788 62.1601H60.4811Z" fill="#5FD068"/>
<path opacity="0.05" d="M13.7787 128.867L17.8223 127.918V128.867L13.7787 129.816V128.867Z" fill="black"/>
<path opacity="0.05" d="M62.062 112.175L66.1057 111.226V112.175L62.062 113.124V112.175Z" fill="black"/>
<path d="M146.901 77.6384C140.455 81.0356 133.781 77.1928 133.781 77.1928C133.677 77.389 133.557 77.5768 133.423 77.7542C133.34 77.6918 133.256 77.6272 133.171 77.5582C130.401 75.2926 127.335 69.9438 127.335 69.9438L121.361 58.7361C120.629 57.3892 120.077 55.9519 119.72 54.4611C118.735 50.1884 115.594 50.0057 115.594 50.0057H111.913C110.132 50.0057 107.558 50.3799 105.01 50.8968C105.078 50.8273 105.122 50.7386 105.137 50.6428L105.015 50.6673L106.382 49.3307C106.382 49.3307 110.294 47.7446 110.755 44.3473L112.826 42.3089C112.826 42.3089 112.893 42.1307 112.986 41.8166L113.674 40.95C116.671 37.1963 116.887 37.1339 116.887 37.1339L125.974 31.754C125.974 31.754 129.236 31.2906 127.876 22.1636C126.515 13.0366 127.431 11.9161 127.431 11.9161C127.431 11.9161 129.902 2.77129 125.164 3.90965C120.426 5.04802 122.568 12.8651 122.568 12.8651L122.897 14.5916C123.31 16.7537 123.288 18.9767 122.83 21.1299C122.338 23.4579 121.788 26.3339 121.926 27.02C122.169 28.2163 119.432 29.7312 119.432 29.7312L117.885 30.6356C116.247 31.5925 114.317 31.9218 112.454 31.5624L112.372 31.4376L111.445 30.7426C111.418 30.8378 111.395 30.9345 111.379 31.0322L111 30.7426V30.7649C111 30.6847 111 30.6089 111.018 30.5243C111.127 29.6675 111.327 28.825 111.617 28.0114C111.641 27.9356 111.672 27.8554 111.699 27.7886C113.43 27.6836 115.057 26.9246 116.25 25.6653C117.443 24.406 118.113 22.7403 118.125 21.0052C118.126 20.2906 118.011 19.5806 117.787 18.9022C117.962 18.9348 118.142 18.9348 118.317 18.9022C119.15 18.7686 120.034 18.3408 120.466 17.6035C120.694 17.1985 120.799 16.7356 120.768 16.2717C120.737 15.8078 120.57 15.3632 120.29 14.9926C120.183 14.8571 120.064 14.7325 119.933 14.6205C119.143 13.7295 117.82 13.5067 116.769 12.9074C115.77 12.3438 115.01 11.4438 114.079 10.7733C112.32 9.50124 110.071 9.11807 107.925 8.76832C107.003 8.61906 106.066 8.4698 105.139 8.59233C103.968 8.74827 102.89 9.33416 101.973 10.0671C101.648 10.3009 101.375 10.6008 101.174 10.947C100.833 11.6153 100.982 12.3995 100.922 13.1391C100.775 14.9391 99.3634 16.4049 97.8047 17.3606C96.8472 17.9465 95.8007 18.4144 94.9968 19.2007C94.193 19.9871 93.7187 21.228 94.2197 22.2215C94.4847 22.7473 95.008 23.1861 95.0124 23.7809C94.995 24.0425 94.9189 24.2968 94.7898 24.525C94.2549 25.6421 93.5326 26.6593 92.6544 27.5324C89.4034 26.7483 85.8942 28.4725 85.8942 28.4725L75.3063 28.9181C75.3063 28.9181 72.3137 27.5592 68.4036 35.9398C64.4935 44.3205 63.1086 44.775 63.1086 44.775C63.1086 44.775 55.9832 51.1173 60.5768 52.7035C65.1705 54.2896 67.7022 46.5861 67.7022 46.5861L70.2517 41.8455C70.2517 41.8455 76.0055 36.4077 76.4664 35.276C76.9273 34.1443 79.6884 34.1443 79.6884 34.1443L90.9131 34.5898C90.9279 34.6805 90.9368 34.772 90.9398 34.8639C90.9665 36.1203 89.7886 37.0916 88.604 37.5572C87.8559 37.8557 87.0008 38.0807 86.5444 38.7356C86.0879 39.3906 86.197 40.3418 86.6557 41.0101C86.7956 41.2098 86.9593 41.3916 87.1433 41.5515C87.6248 42.0481 88.2125 42.4289 88.8623 42.6653C89.4012 42.8802 89.962 43.0356 90.5346 43.1287C90.3017 44.0902 89.985 45.0295 89.5882 45.9356L90.0336 46.1272L89.8866 46.5193C89.2587 48.1879 87.965 51.4804 86.8205 53.472C86.8093 53.472 84.7407 55.2275 83.1353 56.8136C81.9084 58.021 78.9514 69.6453 87.6043 69.8547L89.5793 71.3116H89.6194C91.3763 73.7933 97.1768 77.87 97.1768 77.87L86.9184 78.476C86.4068 78.5071 85.8974 78.5688 85.3932 78.6609C85.2254 78.6906 85.0577 78.724 84.8899 78.7611C83.0819 79.1577 81.0801 79.0173 80.0068 78.8903C79.2965 77.5537 75.9988 78.0973 75.9988 78.0973C75.9988 78.0973 75.5379 84.8941 76.2215 88.7436C76.9051 92.5931 79.4435 90.1025 79.4435 90.1025C78.9826 86.7052 82.7835 84.2057 82.7835 84.2057C83.2667 83.9629 83.8389 83.6688 84.5114 83.3146C86.6446 82.1695 96.7915 83.9205 99.9289 84.4997C100.62 84.6284 101.322 84.6881 102.024 84.678C111.018 84.5309 108.682 80.1423 108.682 80.1423L106.872 76.578C106.575 75.9853 106.31 75.377 106.079 74.7557C104.48 70.523 101.995 68.1928 100.091 66.9453C100.194 66.8161 100.296 66.6869 100.397 66.551C100.397 66.551 100.245 66.5153 100.016 66.4463C101.623 65.6243 102.688 64.9671 102.688 64.9671C102.688 64.9671 113.276 58.6247 112.817 60.2109C112.358 61.797 115.119 67.9121 120.183 72.2161C120.33 72.3408 120.472 72.4678 120.615 72.597L120.753 72.724L121.036 72.9913L121.189 73.1406L121.452 73.4035L121.599 73.5549L121.877 73.8535L121.989 73.9738C122.115 74.1134 122.24 74.2544 122.363 74.397L122.443 74.4928C122.538 74.6057 122.632 74.7186 122.726 74.8314L122.853 74.9896L123.075 75.2747L123.204 75.4418L123.427 75.7337L123.543 75.8874L123.801 76.246L123.864 76.3307C123.969 76.4792 124.072 76.6277 124.173 76.7762L124.249 76.8898L124.471 77.2262L124.565 77.371L124.763 77.6829L124.85 77.821L125.057 78.1619L125.117 78.2599C125.297 78.5569 125.467 78.854 125.629 79.151L125.656 79.2L125.868 79.5832L125.901 79.6455L126.104 80.0287L126.117 80.0554C126.688 81.1457 127.198 82.2665 127.647 83.4126C127.388 83.4749 127.125 83.5196 126.861 83.5463C125.48 89.6636 129.163 89.6636 129.163 89.6636C129.163 89.6636 142.746 87.6252 147.809 82.4146C152.873 77.204 146.901 77.6384 146.901 77.6384Z" fill="url(#paint0_linear_165_951)"/>
<path d="M97.6399 66.052C97.6399 66.052 103.238 67.5045 106.03 75.0119C106.254 75.6192 106.511 76.2141 106.798 76.7941L108.551 80.3094C108.551 80.3094 110.811 84.6245 102.111 84.7648C101.432 84.7745 100.753 84.7156 100.085 84.5889C97.0499 84.0208 87.2347 82.2988 85.1661 83.4238C84.0101 84.0789 82.8209 84.6738 81.6034 85.2059L79.1541 82.5327L80.0447 78.9683C80.0447 78.9683 82.9862 79.5208 85.5268 78.9527C86.1722 78.8071 86.8282 78.7132 87.4885 78.672L97.4173 78.0817C97.4173 78.0817 89.6239 72.5124 89.6239 70.5074C89.6239 68.5025 97.6399 66.052 97.6399 66.052Z" fill="#F8BDC5"/>
<path opacity="0.05" d="M80.9398 79.6411C80.9398 79.6411 78.4905 83.6376 83.4983 84.3193C83.4983 84.3193 79.8265 86.7698 80.2718 90.1114C80.2718 90.1114 77.8225 92.5619 77.1545 88.7747C76.4865 84.9876 76.9318 78.3044 76.9318 78.3044C76.9318 78.3044 80.9398 77.6361 80.9398 79.6411Z" fill="black"/>
<path opacity="0.05" d="M97.6399 66.052C97.6399 66.052 103.238 67.5045 106.03 75.0119C106.254 75.6192 106.511 76.2141 106.798 76.7941L108.551 80.3094C108.551 80.3094 110.811 84.6245 102.111 84.7648C101.432 84.7745 100.753 84.7156 100.085 84.5889C97.0499 84.0208 87.2347 82.2988 85.1661 83.4238C84.0101 84.0789 82.8209 84.6738 81.6034 85.2059L79.1541 82.5327L80.0447 78.9683C80.0447 78.9683 82.9862 79.5208 85.5268 78.9527C86.1722 78.8071 86.8282 78.7132 87.4885 78.672L97.4173 78.0817C97.4173 78.0817 89.6239 72.5124 89.6239 70.5074C89.6239 68.5025 97.6399 66.052 97.6399 66.052Z" fill="black"/>
<path opacity="0.05" d="M80.2718 82.9827L81.1625 79.4183C81.1625 79.4183 84.1039 79.9708 86.6446 79.4027C87.29 79.2571 87.946 79.1632 88.6063 79.122L98.5306 78.5272C98.5306 78.5272 90.7372 72.9579 90.7372 70.953C90.7372 68.948 98.7533 66.4975 98.7533 66.4975L98.8134 66.5153C98.4364 66.3273 98.0437 66.1722 97.6399 66.052C97.6399 66.052 89.6239 68.5025 89.6239 70.5074C89.6239 72.5124 97.4173 78.0817 97.4173 78.0817L87.4952 78.6765C86.8348 78.7177 86.1789 78.8116 85.5335 78.9572C82.9928 79.5252 80.0514 78.9728 80.0514 78.9728L79.1607 82.5371L81.6101 85.2104C81.6101 85.2104 81.7748 85.1436 82.1133 84.9876L80.2718 82.9827Z" fill="black"/>
<path d="M80.9398 79.6411C80.9398 79.6411 78.4905 83.6376 83.4983 84.3193C83.4983 84.3193 79.8265 86.7698 80.2718 90.1114C80.2718 90.1114 77.8225 92.5619 77.1545 88.7747C76.4865 84.9876 76.9318 78.3044 76.9318 78.3044C76.9318 78.3044 80.9398 77.6361 80.9398 79.6411Z" fill="#FFD97B"/>
<path d="M74.3177 144.218V141.182L136.507 123.732L147.629 122.467V125.249L85.6938 147.504L74.3177 144.218Z" fill="#DFE5EE"/>
<path opacity="0.05" d="M74.3177 144.218V141.182L136.507 123.732L147.629 122.467V125.249L85.6938 147.504L74.3177 144.218Z" fill="black"/>
<path d="M74.3177 141.182L136.507 120.696L147.377 122.467L85.6938 144.47L74.3177 141.182Z" fill="#DFE5EE"/>
<path d="M87.9695 94.8988H83.9236V141.942H87.9695V94.8988Z" fill="#DFE5EE"/>
<path d="M136.507 84.023H132.461V125.249H136.507V84.023Z" fill="#DFE5EE"/>
<path d="M146.618 71.1245V83.7713L96.1191 95.0569L90.1449 96.3936L75.3286 99.704L71.0311 98.4386V83.7713L93.9437 79.4005L99.6484 78.3134L141.31 70.3671L146.618 71.1245Z" fill="#DFE5EE"/>
<path opacity="0.05" d="M146.618 71.1245V83.7713L96.1191 95.0569L90.1449 96.3936L75.3286 99.704L71.0311 98.4386V83.7713L93.9437 79.4005L99.6484 78.3134L141.31 70.3671L146.618 71.1245Z" fill="black"/>
<path opacity="0.05" d="M87.9695 94.8988V97.3849L83.9236 98.2894V94.8988H87.9695Z" fill="black"/>
<path opacity="0.05" d="M136.507 84.023V86.5381L132.461 87.4403V84.023H136.507Z" fill="black"/>
<path d="M146.618 71.1245V83.7713L126.115 88.3537L120.152 89.6859L96.1191 95.0569L90.1449 96.3936L75.3286 99.704L75.5825 85.2884L96.1726 81.1827L101.933 80.0354H101.935L125.473 75.3416L131.223 74.1943L146.618 71.1245Z" fill="#DFE5EE"/>
<path d="M101.935 80.0354L96.1191 95.0569L90.1449 96.3936L96.1725 81.1827L93.9436 79.4005L99.6484 78.3134L101.933 80.0354H101.935Z" fill="#5FD068"/>
<path d="M131.512 74.4126L126.115 88.3537L120.152 89.6859L125.75 75.5599L125.473 75.3416L123.523 73.7777L129.225 72.6906L131.223 74.1943L131.51 74.4126H131.512Z" fill="#5FD068"/>
<path opacity="0.05" d="M84.8098 141.12L88.8535 140.171V141.12L84.8098 142.069V141.12Z" fill="black"/>
<path opacity="0.05" d="M133.093 124.427L137.137 123.478V124.427L133.093 125.374V124.427Z" fill="black"/>
<path d="M125.28 32.7252L116.489 38.0161C116.489 38.0161 116.279 38.0785 113.371 41.7698L112.327 43.1064C110.118 45.9468 105.527 46.8936 105.527 46.8936L102.614 42.4114L102 36.9668L102.645 34.7681L103.158 33.026L107.638 33.6676L109.441 34.6411L111.668 32.4134C111.842 32.4601 112.018 32.5025 112.193 32.5359C113.996 32.8915 115.866 32.5703 117.446 31.6337L118.943 30.7426C118.943 30.7426 121.588 29.2522 121.354 28.0693C121.22 27.401 121.753 24.5673 122.229 22.2772C122.671 20.1591 122.693 17.9746 122.294 15.848L121.975 14.1505C121.975 14.1505 119.907 6.4604 124.487 5.34654C129.067 4.23267 126.68 13.2193 126.68 13.2193C126.68 13.2193 125.803 14.3198 127.126 23.2953C128.448 32.2708 125.28 32.7252 125.28 32.7252Z" fill="#F8BDC5"/>
<path d="M110.788 31.5312C110.539 33.8881 111.668 34.2045 111.668 34.2045L112.336 36.8777V39.7738L110.332 43.1153H105.433L101.203 41.1104V31.754L100.535 29.5262C100.908 29.5022 101.28 29.4539 101.648 29.3814C103.797 28.9515 105.015 27.7574 105.701 26.4609C106.769 24.4314 106.547 22.1658 106.547 22.1658C106.547 22.1658 115.453 19.7153 112.336 26.6213C111.922 27.5413 111.606 28.35 111.367 29.0718C111.088 29.8688 110.894 30.6932 110.788 31.5312Z" fill="#F8BDC5"/>
<path d="M105.119 51.0884C105.105 51.1871 105.059 51.2786 104.988 51.349C104.872 51.4836 104.776 51.6335 104.701 51.7946C103.659 53.7616 101.648 60.7054 101.648 60.7054L90.7372 56.6955L90.5791 56.6554L86.2839 55.5817C87.5019 54.7106 89.5371 49.4866 90.3654 47.2455C90.588 46.6196 90.7372 46.2253 90.7372 46.2253L102.316 47.3391C102.316 47.3391 105.318 49.9678 105.119 51.0884Z" fill="#F8BDC5"/>
<path d="M100.535 28.849C100.535 28.849 97.1946 30.1856 93.8546 28.849C90.5146 27.5124 86.5065 29.5173 86.5065 29.5173L76.2638 29.9629C76.2638 29.9629 73.3691 28.6262 69.5838 36.8688C65.7984 45.1114 64.4624 45.5569 64.4624 45.5569C64.4624 45.5569 57.5597 51.7946 62.0131 53.354C66.4664 54.9134 68.9158 47.3391 68.9158 47.3391L71.3651 42.6609C71.3651 42.6609 76.9318 37.3144 77.3771 36.2005C77.8225 35.0866 80.4945 35.0866 80.4945 35.0866L91.6279 35.5322L91.5589 38.7891L94.9679 41.7698L98.0853 39.0965L100.535 34.1955V28.849Z" fill="#F8BDC5"/>
<path opacity="0.1" d="M112.336 26.6213C111.922 27.5413 111.606 28.35 111.367 29.0718C111.247 29.0718 111.122 29.0718 111 29.0718C109.974 29.0729 108.962 28.837 108.043 28.3826C107.123 27.9282 106.321 27.2675 105.698 26.452C106.769 24.4314 106.547 22.1658 106.547 22.1658C106.547 22.1658 115.453 19.7153 112.336 26.6213Z" fill="black"/>
<path d="M111 28.849C114.689 28.849 117.68 25.8569 117.68 22.1658C117.68 18.4748 114.689 15.4827 111 15.4827C107.311 15.4827 104.32 18.4748 104.32 22.1658C104.32 25.8569 107.311 28.849 111 28.849Z" fill="#F8BDC5"/>
<path opacity="0.1" d="M105.119 51.0884C105.105 51.1871 105.059 51.2786 104.988 51.349C104.872 51.4836 104.776 51.6335 104.701 51.7946C100.739 51.6208 92.071 47.9829 90.3654 47.2545C90.588 46.6285 90.7372 46.2342 90.7372 46.2342L102.316 47.348C102.316 47.348 105.318 49.9678 105.119 51.0884Z" fill="black"/>
<path opacity="0.1" d="M113.38 41.7698L112.336 43.1064C110.127 45.9468 105.536 46.8936 105.536 46.8936L102.623 42.4114L102.009 36.9668L102.205 31.6337C102.826 34.5297 104.563 40.5713 107.215 41.1015C111.648 41.9926 111.33 35.6369 111.111 32.9703C111.078 32.5585 111.116 32.1441 111.223 31.745L112.113 32.4134L112.194 32.5359C114.316 35.8329 113.839 39.7582 113.38 41.7698Z" fill="black"/>
<path d="M101.648 28.4035H99.4213C99.4213 28.4035 101.648 42.6609 91.1826 38.651C91.1826 38.651 92.0732 41.9926 90.0692 46.6708C90.0692 46.6708 100.757 51.349 104.988 51.349L106.324 50.0124C106.324 50.0124 110.109 48.453 110.555 45.1114L112.559 43.1064C112.559 43.1064 114.785 37.0916 111.668 32.4134L110.777 31.745C110.67 32.144 110.633 32.5585 110.666 32.9703C110.889 35.6436 111.203 41.9881 106.769 41.1015C101.203 39.9876 101.648 28.4035 101.648 28.4035Z" fill="#EB6576"/>
<path d="M86.5065 68.948L90.0692 71.6213C90.0692 71.6213 95.8586 73.4035 100.535 66.9431C100.535 66.9431 97.6399 66.2748 98.0853 64.7153C98.5306 63.1559 86.5065 68.948 86.5065 68.948Z" fill="#5E52AD"/>
<path opacity="0.05" d="M86.5065 68.948L90.0692 71.6213C90.0692 71.6213 95.8586 73.4035 100.535 66.9431C100.535 66.9431 97.6399 66.2748 98.0853 64.7153C98.5306 63.1559 86.5065 68.948 86.5065 68.948Z" fill="black"/>
<path opacity="0.1" d="M105.119 51.3111C105.105 51.4099 105.059 51.5013 104.988 51.5718C104.097 52.4629 101.648 60.9282 101.648 60.9282L90.7372 56.9183L90.5791 56.8782C91.4246 56.3437 92.3193 55.8917 93.2511 55.5282C94.0104 55.2342 94.7742 54.9223 95.4355 54.6238C95.9714 54.3944 96.4862 54.1186 96.9741 53.7995C97.9071 53.1312 101.49 52.0619 105.119 51.3111Z" fill="black"/>
<path d="M130.372 82.9827L127.032 83.8738C127.032 83.8738 126.956 83.651 126.809 83.2634C126.097 81.45 123.723 75.9988 119.684 72.5124C114.785 68.2797 112.113 62.2649 112.559 60.7054C113.004 59.146 102.761 65.3837 102.761 65.3837C102.761 65.3837 95.3353 70.0062 90.4277 70.0129C89.6944 70.0337 88.965 69.8985 88.2879 69.6163C86.3952 68.7631 85.6292 67.2683 85.3731 65.8292C85.2215 64.9183 85.2621 63.9857 85.4922 63.0914C85.7223 62.1971 86.1368 61.3609 86.7091 60.6364C88.4059 58.4419 90.6695 56.7526 93.2556 55.751C94.0149 55.4569 94.7786 55.1451 95.4399 54.8465C95.9758 54.6172 96.4907 54.3414 96.9786 54.0223C98.5373 52.9084 107.444 50.6807 111.675 50.6807H115.237C115.237 50.6807 118.275 50.8589 119.228 55.0604C119.571 56.5219 120.103 57.9326 120.809 59.2574L126.587 70.2847C126.587 70.2847 129.553 75.5443 132.231 77.772C132.995 78.4092 133.737 78.799 134.38 78.75C137.275 78.5272 130.372 82.9827 130.372 82.9827Z" fill="#F8BDC5"/>
<path opacity="0.1" d="M119.942 18.8287C120.163 18.4298 120.265 17.9757 120.235 17.5207C120.205 17.0656 120.044 16.6288 119.773 16.2624C119.025 15.2889 117.673 15.0661 116.607 14.4557C115.638 13.901 114.906 13.0166 114.006 12.3572C112.305 11.1074 110.136 10.7287 108.054 10.3879C107.163 10.2408 106.255 10.0938 105.36 10.2163C104.226 10.37 103.184 10.947 102.296 11.6666C101.981 11.8974 101.717 12.1918 101.523 12.5309C101.194 13.1814 101.338 13.9611 101.281 14.6874C101.138 16.4584 99.7708 17.8998 98.2634 18.8376C97.3371 19.4146 96.3172 19.8735 95.5468 20.6465C94.7764 21.4196 94.311 22.6403 94.7964 23.6161C95.0547 24.1329 95.5602 24.5651 95.5624 25.1443C95.5477 25.4011 95.4762 25.6514 95.3531 25.8772C94.8258 26.9993 94.107 28.0208 93.2288 28.8958C92.4406 29.68 91.4987 30.3839 91.089 31.4198C90.6949 32.4156 90.8663 33.5517 91.2293 34.5609C91.3985 35.0421 91.6101 35.5233 91.619 36.0312C91.6435 37.2676 90.5056 38.2166 89.3589 38.68C88.6352 38.9718 87.8002 39.1946 87.366 39.8384C86.9318 40.4822 87.0298 41.4178 87.4729 42.0661C87.916 42.7144 88.6308 43.1488 89.3656 43.445C90.7296 44.0199 92.2417 44.1432 93.6809 43.797C94.3947 43.6186 95.0635 43.293 95.6444 42.8411C96.2253 42.3892 96.7055 41.821 97.0543 41.1728C97.7223 39.8718 97.7668 38.2767 98.6931 37.1406C100.325 35.1557 103.768 35.6569 105.471 33.73C106.838 32.1817 106.466 29.8359 106.362 27.773C106.301 26.6238 106.349 25.4715 106.504 24.3312C106.616 23.5203 106.821 22.6493 107.457 22.1369C107.972 21.7225 108.666 21.629 109.321 21.5488C110.688 21.3772 112.263 21.0453 112.884 19.8134C113.142 19.301 113.22 18.655 113.685 18.3208C114.329 17.8574 115.231 18.3208 115.792 18.8777C116.411 19.4948 116.93 20.2545 117.872 20.1007C118.671 19.976 119.526 19.555 119.942 18.8287Z" fill="black"/>
<path d="M119.702 18.5881C119.922 18.189 120.023 17.7348 119.993 17.2797C119.963 16.8247 119.802 16.388 119.53 16.0218C118.782 15.0483 117.431 14.8255 116.364 14.2151C115.395 13.6604 114.663 12.776 113.763 12.1166C112.062 10.8668 109.893 10.4881 107.811 10.1473C106.921 10.0002 106.012 9.85322 105.117 9.97574C103.984 10.1295 102.942 10.7064 102.053 11.426C101.738 11.6568 101.475 11.9513 101.281 12.2903C100.951 12.9408 101.096 13.7205 101.038 14.4468C100.895 16.2178 99.5282 17.6592 98.0207 18.597C97.0944 19.174 96.0746 19.6329 95.3041 20.4059C94.5337 21.179 94.0683 22.3998 94.5538 23.3755C94.8121 23.8923 95.3175 24.3245 95.3197 24.9037C95.305 25.1605 95.2336 25.4108 95.1104 25.6366C94.5831 26.7587 93.8643 27.7802 92.9862 28.6552C92.1979 29.4394 91.256 30.1433 90.8463 31.1792C90.4522 32.175 90.6237 33.3111 90.9866 34.3203C91.1558 34.8015 91.3674 35.2827 91.3763 35.7906C91.4008 37.027 90.2629 37.976 89.1162 38.4394C88.3925 38.7312 87.5575 38.954 87.1233 39.5978C86.6891 40.2416 86.7871 41.1772 87.2302 41.8255C87.6733 42.4738 88.3881 42.9082 89.1229 43.2045C90.487 43.7793 91.9991 43.9026 93.4382 43.5564C94.1521 43.378 94.8209 43.0524 95.4018 42.6005C95.9826 42.1487 96.4629 41.5804 96.8116 40.9322C97.4796 39.6312 97.5241 38.0361 98.4504 36.9C100.083 34.9151 103.525 35.4163 105.228 33.4894C106.596 31.9411 106.224 29.5953 106.119 27.5324C106.059 26.3832 106.106 25.2309 106.262 24.0906C106.373 23.2797 106.578 22.4087 107.215 21.8963C107.729 21.4819 108.424 21.3884 109.078 21.3082C110.446 21.1366 112.02 20.8047 112.641 19.5728C112.899 19.0604 112.977 18.4144 113.443 18.0802C114.086 17.6168 114.988 18.0802 115.549 18.6371C116.168 19.2542 116.687 20.0139 117.629 19.8601C118.428 19.7332 119.285 19.3121 119.702 18.5881Z" fill="#6E464E"/>
<path opacity="0.1" d="M96.6379 45C96.6379 45 99.0873 47.005 102.205 46.7822L96.6379 45Z" fill="black"/>
<path opacity="0.05" d="M134.919 78.7901C133.641 80.0465 130.817 81.8688 130.817 81.8688L127.477 82.7599C127.477 82.7599 125.028 75.6312 120.129 71.3985C115.231 67.1658 112.559 61.151 113.004 59.5916C113.449 58.0322 103.207 64.2698 103.207 64.2698C103.207 64.2698 95.7806 68.8923 90.873 68.899C90.1397 68.9198 89.4104 68.7846 88.7332 68.5025C86.8405 67.6493 86.0745 66.1545 85.8184 64.7153C85.6456 63.7264 85.7082 62.7105 86.001 61.7503C85.3546 63.0056 85.1342 64.4374 85.3731 65.8292C85.6292 67.2683 86.3952 68.7631 88.2878 69.6163C88.965 69.8985 89.6944 70.0337 90.4277 70.0129C95.3264 70.0129 102.761 65.3837 102.761 65.3837C102.761 65.3837 113.004 59.146 112.559 60.7054C112.113 62.2649 114.785 68.2797 119.684 72.5124C124.583 76.7451 127.032 83.8738 127.032 83.8738L130.372 82.9827C130.372 82.9827 136.137 79.2602 134.919 78.7901Z" fill="black"/>
<path opacity="0.1" d="M95.6359 54.9134L95.2574 55.0894C92.4942 56.3589 90.2307 58.5106 88.8223 61.2067C85.8385 67.0166 89.7819 69.6342 90.4277 70.0129C89.6944 70.0337 88.965 69.8985 88.2879 69.6163C86.3952 68.7631 85.6292 67.2683 85.3731 65.8292C85.2215 64.9183 85.2621 63.9857 85.4922 63.0914C85.7223 62.1971 86.1368 61.3609 86.7091 60.6364C88.4059 58.4419 90.6695 56.7526 93.2556 55.751C94.0149 55.4569 94.7786 55.145 95.4399 54.8465L95.6359 54.9134Z" fill="black"/>
<path d="M95.1906 54.9134C95.1906 54.9134 90.5145 53.2515 87.3972 54.0824C87.3972 54.0824 85.3932 55.8045 83.8345 57.3639C82.5653 58.6337 79.3811 71.6213 90.0692 70.0619C90.0692 70.0619 85.1349 67.5178 88.3769 61.2067C89.7852 58.5105 92.0487 56.3588 94.812 55.0894L95.1906 54.9134Z" fill="#5E52AD"/>
<path opacity="0.1" d="M130.372 82.9827L127.032 83.8738C127.032 83.8738 126.956 83.651 126.809 83.2634C127.587 83.0584 128.591 82.595 128.591 81.646C128.591 81.646 131.14 79.2646 132.231 77.772C132.995 78.4092 133.737 78.799 134.38 78.75C137.275 78.5272 130.372 82.9827 130.372 82.9827Z" fill="black"/>
<path d="M128.813 81.8688C128.813 81.8688 132.153 78.75 132.821 77.4134C132.821 77.4134 139.279 81.2005 145.514 77.8589C145.514 77.8589 151.303 77.4134 146.404 82.5371C141.506 87.6609 128.368 89.6658 128.368 89.6658C128.368 89.6658 124.805 89.6658 126.141 83.651C126.141 83.651 128.813 83.4282 128.813 81.8688Z" fill="#FFD97B"/>
<path d="M148.689 159.812V156.776L210.878 139.326L222 138.061V140.843L160.065 163.098L148.689 159.812Z" fill="#DFE5EE"/>
<path opacity="0.05" d="M148.689 159.812V156.776L210.878 139.326L222 138.061V140.843L160.065 163.098L148.689 159.812Z" fill="black"/>
<path d="M148.689 156.776L210.878 136.29L221.748 138.061L160.065 160.064L148.689 156.776Z" fill="#DFE5EE"/>
<path d="M162.341 110.493H158.295V157.536H162.341V110.493Z" fill="#DFE5EE"/>
<path d="M210.878 99.6171H206.832V140.843H210.878V99.6171Z" fill="#DFE5EE"/>
<path d="M220.989 86.7186V99.3653L170.49 110.651L164.516 111.988L149.7 115.298L145.402 114.033V99.3653L168.315 94.9946L174.02 93.9074L215.681 85.9611L220.989 86.7186Z" fill="#DFE5EE"/>
<path opacity="0.05" d="M220.989 86.7186V99.3653L170.49 110.651L164.516 111.988L149.7 115.298L145.402 114.033V99.3653L168.315 94.9946L174.02 93.9074L215.681 85.9611L220.989 86.7186Z" fill="black"/>
<path opacity="0.05" d="M162.341 110.493V112.979L158.295 113.883V110.493H162.341Z" fill="black"/>
<path opacity="0.05" d="M210.878 99.6171V102.132L206.832 103.034V99.6171H210.878Z" fill="black"/>
<path d="M220.989 86.7186V99.3653L200.486 103.948L194.523 105.28L170.49 110.651L164.516 111.988L149.7 115.298L149.954 100.882L170.544 96.7767L176.304 95.6295H176.306L199.845 90.9356L205.594 89.7884L220.989 86.7186Z" fill="#DFE5EE"/>
<path d="M176.306 95.6295L170.49 110.651L164.516 111.988L170.544 96.7767L168.315 94.9946L174.019 93.9074L176.304 95.6295H176.306Z" fill="#5FD068"/>
<path d="M205.883 90.0067L200.486 103.948L194.523 105.28L200.121 91.154L199.845 90.9356L197.894 89.3718L203.596 88.2847L205.594 89.7884L205.881 90.0067H205.883Z" fill="#5FD068"/>
<path opacity="0.05" d="M159.181 156.714L163.225 155.765V156.714L159.181 157.663V156.714Z" fill="black"/>
<path opacity="0.05" d="M207.464 140.021L211.508 139.072V140.021L207.464 140.968V140.021Z" fill="black"/>
</g>
<defs>
<linearGradient id="paint0_linear_165_951" x1="104.445" y1="90.8911" x2="104.445" y2="3.80272" gradientUnits="userSpaceOnUse">
<stop stop-color="#808080" stop-opacity="0.25"/>
<stop offset="0.54" stop-color="#808080" stop-opacity="0.12"/>
<stop offset="1" stop-color="#808080" stop-opacity="0.1"/>
</linearGradient>
<clipPath id="clip0_165_951">
<rect width="222" height="180" fill="white"/>
</clipPath>
</defs>
</svg>
